<svg id="e66cdcae-b662-46fb-b424-18ba1a805fb0" data-name="Layer 1" xmlns="http://www.w3.org/2000/svg" width="832.5" height="677.84461" viewBox="0 0 832.5 677.84461" style=""><title>bookmarks</title><path fill="#0facf3" d="M516,643.84461A151,34 0,1,1 818,643.84461A151,34 0,1,1 516,643.84461" class="ipYystKt_0"></path><path fill="none" stroke="#3f3d56" stroke-miterlimit="10" d="M530,633.84461A151,34 0,1,1 832,633.84461A151,34 0,1,1 530,633.84461" class="ipYystKt_1"></path><path fill="#0facf3" d="M406.5,304.34461A30,30 0,1,1 466.5,304.34461A30,30 0,1,1 406.5,304.34461" class="ipYystKt_2"></path><path fill="#0facf3" d="M527.5,304.34461A30,30 0,1,1 587.5,304.34461A30,30 0,1,1 527.5,304.34461" class="ipYystKt_3"></path><path fill="#0facf3" d="M648.5,304.34461A30,30 0,1,1 708.5,304.34461A30,30 0,1,1 648.5,304.34461" class="ipYystKt_4"></path><path fill="#f86b75" d="M9.5,20.34461A3,3 0,1,1 15.5,20.34461A3,3 0,1,1 9.5,20.34461" class="ipYystKt_5"></path><path fill="#fad375" d="M18.5,20.34461A3,3 0,1,1 24.5,20.34461A3,3 0,1,1 18.5,20.34461" class="ipYystKt_6"></path><path fill="#8bcc55" d="M27.5,20.34461A3,3 0,1,1 33.5,20.34461A3,3 0,1,1 27.5,20.34461" class="ipYystKt_7"></path><path width="206" height="64" fill="#0facf3" d="M67 66.84461 L273 66.84461 L273 130.84461 L67 130.84461 Z" class="ipYystKt_8"></path><path width="364" height="216" fill="none" stroke="#3f3d56" stroke-miterlimit="10" d="M0.5 10.34461 L364.5 10.34461 L364.5 226.34461 L0.5 226.34461 Z" class="ipYystKt_9"></path><path fill="none" stroke="#3f3d56" stroke-miterlimit="10" d="M0.5,26.70288L364.5,26.70288" class="ipYystKt_10"></path><path fill="none" stroke="#3f3d56" stroke-miterlimit="10" d="M10.5,18.34461A3,3 0,1,1 16.5,18.34461A3,3 0,1,1 10.5,18.34461" class="ipYystKt_11"></path><path fill="none" stroke="#3f3d56" stroke-miterlimit="10" d="M19.5,18.34461A3,3 0,1,1 25.5,18.34461A3,3 0,1,1 19.5,18.34461" class="ipYystKt_12"></path><path fill="none" stroke="#3f3d56" stroke-miterlimit="10" d="M28.5,18.34461A3,3 0,1,1 34.5,18.34461A3,3 0,1,1 28.5,18.34461" class="ipYystKt_13"></path><path width="206" height="64" fill="none" stroke="#3f3d56" stroke-miterlimit="10" d="M79.5 54.34461 L285.5 54.34461 L285.5 118.34461 L79.5 118.34461 Z" class="ipYystKt_14"></path><path width="276" height="8.27586" fill="#f2f2f2" d="M41 158.84461 L317 158.84461 L317 167.12046999999998 L41 167.12046999999998 Z" class="ipYystKt_15"></path><path width="276" height="8.27586" fill="#f2f2f2" d="M41 178.70668 L317 178.70668 L317 186.98254 L41 186.98254 Z" class="ipYystKt_16"></path><path width="276" height="8.27586" fill="#f2f2f2" d="M41 198.56875 L317 198.56875 L317 206.84461 L41 206.84461 Z" class="ipYystKt_17"></path><path width="276" height="8.27586" fill="none" stroke="#3f3d56" stroke-miterlimit="10" d="M44 154.84461 L320 154.84461 L320 163.12046999999998 L44 163.12046999999998 Z" class="ipYystKt_18"></path><path width="276" height="8.27586" fill="none" stroke="#3f3d56" stroke-miterlimit="10" d="M44 174.70668 L320 174.70668 L320 182.98254 L44 182.98254 Z" class="ipYystKt_19"></path><path width="276" height="8.27586" fill="none" stroke="#3f3d56" stroke-miterlimit="10" d="M44 194.56875 L320 194.56875 L320 202.84461 L44 202.84461 Z" class="ipYystKt_20"></path><path fill="#f86b75" d="M93.5,394.34461A3,3 0,1,1 99.5,394.34461A3,3 0,1,1 93.5,394.34461" class="ipYystKt_21"></path><path fill="#fad375" d="M102.5,394.34461A3,3 0,1,1 108.5,394.34461A3,3 0,1,1 102.5,394.34461" class="ipYystKt_22"></path><path fill="#8bcc55" d="M111.5,394.34461A3,3 0,1,1 117.5,394.34461A3,3 0,1,1 111.5,394.34461" class="ipYystKt_23"></path><path width="206" height="64" fill="#0facf3" d="M151 440.84461 L357 440.84461 L357 504.84461 L151 504.84461 Z" class="ipYystKt_24"></path><path fill="none" stroke="#3f3d56" stroke-miterlimit="10" d="M448.5,428.345L448.5,600.345L84.5,600.345L84.5,384.345L380.5,384.345" class="ipYystKt_25"></path><path fill="none" stroke="#3f3d56" stroke-miterlimit="10" d="M84.5,400.70288L381,400.70288" class="ipYystKt_26"></path><path fill="none" stroke="#3f3d56" stroke-miterlimit="10" d="M94.5,392.34461A3,3 0,1,1 100.5,392.34461A3,3 0,1,1 94.5,392.34461" class="ipYystKt_27"></path><path fill="none" stroke="#3f3d56" stroke-miterlimit="10" d="M103.5,392.34461A3,3 0,1,1 109.5,392.34461A3,3 0,1,1 103.5,392.34461" class="ipYystKt_28"></path><path fill="none" stroke="#3f3d56" stroke-miterlimit="10" d="M112.5,392.34461A3,3 0,1,1 118.5,392.34461A3,3 0,1,1 112.5,392.34461" class="ipYystKt_29"></path><path width="206" height="64" fill="none" stroke="#3f3d56" stroke-miterlimit="10" d="M163.5 428.34461 L369.5 428.34461 L369.5 492.34461 L163.5 492.34461 Z" class="ipYystKt_30"></path><path fill="#f86b75" d="M389.5,221.34461A3,3 0,1,1 395.5,221.34461A3,3 0,1,1 389.5,221.34461" class="ipYystKt_31"></path><path fill="#fad375" d="M398.5,221.34461A3,3 0,1,1 404.5,221.34461A3,3 0,1,1 398.5,221.34461" class="ipYystKt_32"></path><path fill="#8bcc55" d="M407.5,221.34461A3,3 0,1,1 413.5,221.34461A3,3 0,1,1 407.5,221.34461" class="ipYystKt_33"></path><path width="364" height="216" fill="none" stroke="#3f3d56" stroke-miterlimit="10" d="M380.5 211.34461 L744.5 211.34461 L744.5 427.34461 L380.5 427.34461 Z" class="ipYystKt_34"></path><path fill="none" stroke="#3f3d56" stroke-miterlimit="10" d="M380.5,227.70288L744.5,227.70288" class="ipYystKt_35"></path><path fill="none" stroke="#3f3d56" stroke-miterlimit="10" d="M390.5,219.34461A3,3 0,1,1 396.5,219.34461A3,3 0,1,1 390.5,219.34461" class="ipYystKt_36"></path><path fill="none" stroke="#3f3d56" stroke-miterlimit="10" d="M399.5,219.34461A3,3 0,1,1 405.5,219.34461A3,3 0,1,1 399.5,219.34461" class="ipYystKt_37"></path><path fill="none" stroke="#3f3d56" stroke-miterlimit="10" d="M408.5,219.34461A3,3 0,1,1 414.5,219.34461A3,3 0,1,1 408.5,219.34461" class="ipYystKt_38"></path><path fill="none" stroke="#3f3d56" stroke-miterlimit="10" d="M411.5,299.34461A30,30 0,1,1 471.5,299.34461A30,30 0,1,1 411.5,299.34461" class="ipYystKt_39"></path><path fill="none" stroke="#3f3d56" stroke-miterlimit="10" d="M532.5,299.34461A30,30 0,1,1 592.5,299.34461A30,30 0,1,1 532.5,299.34461" class="ipYystKt_40"></path><path fill="none" stroke="#3f3d56" stroke-miterlimit="10" d="M653.5,299.34461A30,30 0,1,1 713.5,299.34461A30,30 0,1,1 653.5,299.34461" class="ipYystKt_41"></path><path width="82" height="8" fill="#f2f2f2" d="M396 354.84461 L478 354.84461 L478 362.84461 L396 362.84461 Z" class="ipYystKt_42"></path><path width="82" height="8" fill="#f2f2f2" d="M518 354.84461 L600 354.84461 L600 362.84461 L518 362.84461 Z" class="ipYystKt_43"></path><path width="82" height="8" fill="#f2f2f2" d="M640 354.84461 L722 354.84461 L722 362.84461 L640 362.84461 Z" class="ipYystKt_44"></path><path width="82" height="8" fill="none" stroke="#3f3d56" stroke-miterlimit="10" d="M400 351.84461 L482 351.84461 L482 359.84461 L400 359.84461 Z" class="ipYystKt_45"></path><path width="82" height="8" fill="none" stroke="#3f3d56" stroke-miterlimit="10" d="M522 351.84461 L604 351.84461 L604 359.84461 L522 359.84461 Z" class="ipYystKt_46"></path><path width="82" height="8" fill="none" stroke="#3f3d56" stroke-miterlimit="10" d="M644 351.84461 L726 351.84461 L726 359.84461 L644 359.84461 Z" class="ipYystKt_47"></path><path width="63" height="54" fill="#f2f2f2" d="M98 529.84461 L161 529.84461 L161 583.84461 L98 583.84461 Z" class="ipYystKt_48"></path><path width="63" height="54" fill="#f2f2f2" d="M214.5 530.34461 L277.5 530.34461 L277.5 584.34461 L214.5 584.34461 Z" class="ipYystKt_49"></path><path width="63" height="54" fill="#f2f2f2" d="M331 530.84461 L394 530.84461 L394 584.84461 L331 584.84461 Z" class="ipYystKt_50"></path><path width="63" height="54" fill="none" stroke="#3f3d56" stroke-miterlimit="10" d="M107 519.84461 L170 519.84461 L170 573.84461 L107 573.84461 Z" class="ipYystKt_51"></path><path width="63" height="54" fill="none" stroke="#3f3d56" stroke-miterlimit="10" d="M223.5 520.34461 L286.5 520.34461 L286.5 574.34461 L223.5 574.34461 Z" class="ipYystKt_52"></path><path width="63" height="54" fill="none" stroke="#3f3d56" stroke-miterlimit="10" d="M340 520.84461 L403 520.84461 L403 574.84461 L340 574.84461 Z" class="ipYystKt_53"></path><path fill="#79758c" d="M600.786,204.492L572.726,220.039L602.65,209.483L600.786,204.492Z" class="ipYystKt_54"></path><path transform="translate(-242.57387 149.13382) rotate(-17.99425)" fill="#3f3d56" d="M784.4814700000001,315.8657A7.82868,15.77231 0,1,1 800.13883,315.8657A7.82868,15.77231 0,1,1 784.4814700000001,315.8657" class="ipYystKt_55"></path><path transform="translate(-237.66497 156.08467) rotate(-17.99425)" fill="#3f3d56" d="M810.8084,303.83928A5.90628,11.13657 0,1,1 822.6209600000001,303.83928A5.90628,11.13657 0,1,1 810.8084,303.83928" class="ipYystKt_56"></path><path fill="#3f3d56" d="M610.365,195.681L628.977,188.961L632.933,199.919L614.919,212.087L610.365,195.681Z" class="ipYystKt_57"></path><path d="M792.33488,347.04626l5-11s12-32,1-26-15,22-15,22l-3,10Z" transform="translate(-183.75 -111.0777)" fill="#a0616a" class="ipYystKt_58"></path><path d="M929.33488,513.04626s-17,33-22,34-5-30-5-30,10-9,14-8S929.33488,513.04626,929.33488,513.04626Z" transform="translate(-183.75 -111.0777)" fill="#a0616a" class="ipYystKt_59"></path><path d="M904.33488,721.04626s9,5,5,16-6,8-8,17-20,8-21,4-3-20,2-26S904.33488,721.04626,904.33488,721.04626Z" transform="translate(-183.75 -111.0777)" fill="#55536e" class="ipYystKt_60"></path><path d="M815.33488,721.04626s-9,5-5,16,6,8,8,17,20,8,21,4,3-20-2-26S815.33488,721.04626,815.33488,721.04626Z" transform="translate(-183.75 -111.0777)" fill="#55536e" class="ipYystKt_61"></path><path d="M899.33488,521.04626s8,5,10,36-1,66-2,74,1,20,3,26-5,52-5,52a23.4326,23.4326,0,0,1,0,20c-5,11-20,22-24,11a27.13063,27.13063,0,0,0-3-11c-3-6,2-30,2-30s-4-38-3-48-12-69-14-79-1-18-2-15-19,86-19,86,2,53,1,60,4,21,1,26-9,23-20,12-9-15-10-20,0-11,0-19-8-53-4-60,2-16,1-32-2-93,8-107S899.33488,521.04626,899.33488,521.04626Z" transform="translate(-183.75 -111.0777)" fill="#3f3d56" class="ipYystKt_62"></path><path fill="#a0616a" d="M667.08488,198.46856A24,24 0,1,1 715.08488,198.46856A24,24 0,1,1 667.08488,198.46856" class="ipYystKt_63"></path><path d="M890.33488,319.04626s-1,36,4,42-43-5-43-5,11-23,4-38S890.33488,319.04626,890.33488,319.04626Z" transform="translate(-183.75 -111.0777)" fill="#a0616a" class="ipYystKt_64"></path><path d="M899.33488,357.04626s-2-8-14-10-26.19084-4-30.59542,0-6.40458,9-9.40458,9h-14l-22,39s11,13,8,37-8,68-8,68a219.99527,219.99527,0,0,1,21,34c10,20,79,18,75-17,0,0-5-9-3-17s8-62,8-62l23-61S901.33488,361.04626,899.33488,357.04626Z" transform="translate(-183.75 -111.0777)" fill="#55536e" class="ipYystKt_65"></path><path d="M926.33488,376.04626h7s4,23,3,37-1,47-1,47,4,8,3,15-3,26-3,26-1,27-20,13c0,0-6-3-3-16s-2-27-2-27,3-9,2-15-5-25-5-25Z" transform="translate(-183.75 -111.0777)" fill="#55536e" class="ipYystKt_66"></path><path d="M836.33488,359.04626l-5-3s-7-3-17,0-15,2-19,1-1-11-1-11-8-14-16-6-8,24-8,24-5,10,13,16,26,15,26,15h20Z" transform="translate(-183.75 -111.0777)" fill="#55536e" class="ipYystKt_67"></path><path d="M873.20839,338.19386a4.63628,4.63628,0,0,0-2.8751-4.13,13.10926,13.10926,0,0,0-3.41741-.67489c-3.40526-.43912-6.90823-1.6879-8.8918-4.28928-2.64122-3.46385-1.91928-8.30936-4.03611-12.0696a41.85984,41.85984,0,0,0-3.22706-4.24013c-3.69409-4.94381-4.34515-11.25545-4.68151-17.26a7.41034,7.41034,0,0,1,.40689-3.60635,13.863,13.863,0,0,1,2.28185-2.81564,9.35213,9.35213,0,0,0,2.26249-6.241c-.10806-4.6505,6.54605-7.77555,11.25866-9.38154s9.82338-1.86178,14.84422-1.92973c2.88641-.03906,5.86539-.00491,8.51833,1.04929a19.607,19.607,0,0,1,4.27089,2.54282c5.5601,4.0699,10.78209,9.07349,12.64833,15.40628a33.3114,33.3114,0,0,1,1.01324,8.8482,5.7908,5.7908,0,0,1-.39612,2.72307c-.66724,1.34161-2.24018,2.06829-3.25707,3.2061-1.89928,2.12511-1.56121,5.19994-1.80185,7.94983a18.21013,18.21013,0,0,1-8.944,13.77276,11.406,11.406,0,0,0-2.79721,1.9338,12.27894,12.27894,0,0,0-1.54257,2.69289C882.84517,335.5174,877.80544,338.05811,873.20839,338.19386Z" transform="translate(-183.75 -111.0777)" fill="#3f3d56" class="ipYystKt_68"></path><path fill="#79758c" d="M192.598,10.671L179.278,18.05L193.483,13.04L192.598,10.671Z" class="ipYystKt_69"></path><path transform="translate(-202.81554 12.28627) rotate(-17.99425)" fill="#3f3d56" d="M376.32223,121.88906A3.71613,7.48683 0,1,1 383.75449000000003,121.88906A3.71613,7.48683 0,1,1 376.32223,121.88906" class="ipYystKt_70"></path><path transform="translate(-200.48537 15.58571) rotate(-17.99425)" fill="#3f3d56" d="M388.81914,116.18033A2.8036,5.28632 0,1,1 394.42634000000004,116.18033A2.8036,5.28632 0,1,1 388.81914,116.18033" class="ipYystKt_71"></path><path fill="#3f3d56" d="M197.145,6.488L205.98,3.299L207.858,8.5L199.307,14.276L197.145,6.488Z" class="ipYystKt_72"></path><path fill="#79758c" d="M282.598,382.671L269.278,390.05L283.483,385.04L282.598,382.671Z" class="ipYystKt_73"></path><path transform="translate(-313.33226 58.28467) rotate(-17.99425)" fill="#3f3d56" d="M466.32223,493.88906A3.71613,7.48683 0,1,1 473.75449000000003,493.88906A3.71613,7.48683 0,1,1 466.32223,493.88906" class="ipYystKt_74"></path><path transform="translate(-311.00209 61.58411) rotate(-17.99425)" fill="#3f3d56" d="M478.81914,488.18033A2.8036,5.28632 0,1,1 484.42634000000004,488.18033A2.8036,5.28632 0,1,1 478.81914,488.18033" class="ipYystKt_75"></path><path fill="#3f3d56" d="M287.145,378.488L295.98,375.299L297.858,380.5L289.307,386.276L287.145,378.488Z" class="ipYystKt_76"></path><style data-made-with="vivus-instant">.ipYystKt_0{stroke-dasharray:642 644;stroke-dashoffset:643;animation:ipYystKt_draw 2000ms linear 0ms forwards;}.ipYystKt_1{stroke-dasharray:642 644;stroke-dashoffset:643;animation:ipYystKt_draw 2000ms linear 13ms forwards;}.ipYystKt_2{stroke-dasharray:189 191;stroke-dashoffset:190;animation:ipYystKt_draw 2000ms linear 26ms forwards;}.ipYystKt_3{stroke-dasharray:189 191;stroke-dashoffset:190;animation:ipYystKt_draw 2000ms linear 39ms forwards;}.ipYystKt_4{stroke-dasharray:189 191;stroke-dashoffset:190;animation:ipYystKt_draw 2000ms linear 52ms forwards;}.ipYystKt_5{stroke-dasharray:19 21;stroke-dashoffset:20;animation:ipYystKt_draw 2000ms linear 65ms forwards;}.ipYystKt_6{stroke-dasharray:19 21;stroke-dashoffset:20;animation:ipYystKt_draw 2000ms linear 78ms forwards;}.ipYystKt_7{stroke-dasharray:19 21;stroke-dashoffset:20;animation:ipYystKt_draw 2000ms linear 92ms forwards;}.ipYystKt_8{stroke-dasharray:540 542;stroke-dashoffset:541;animation:ipYystKt_draw 2000ms linear 105ms forwards;}.ipYystKt_9{stroke-dasharray:1160 1162;stroke-dashoffset:1161;animation:ipYystKt_draw 2000ms linear 118ms forwards;}.ipYystKt_10{stroke-dasharray:364 366;stroke-dashoffset:365;animation:ipYystKt_draw 2000ms linear 131ms forwards;}.ipYystKt_11{stroke-dasharray:19 21;stroke-dashoffset:20;animation:ipYystKt_draw 2000ms linear 144ms forwards;}.ipYystKt_12{stroke-dasharray:19 21;stroke-dashoffset:20;animation:ipYystKt_draw 2000ms linear 157ms forwards;}.ipYystKt_13{stroke-dasharray:19 21;stroke-dashoffset:20;animation:ipYystKt_draw 2000ms linear 171ms forwards;}.ipYystKt_14{stroke-dasharray:540 542;stroke-dashoffset:541;animation:ipYystKt_draw 2000ms linear 184ms forwards;}.ipYystKt_15{stroke-dasharray:569 571;stroke-dashoffset:570;animation:ipYystKt_draw 2000ms linear 197ms forwards;}.ipYystKt_16{stroke-dasharray:569 571;stroke-dashoffset:570;animation:ipYystKt_draw 2000ms linear 210ms forwards;}.ipYystKt_17{stroke-dasharray:569 571;stroke-dashoffset:570;animation:ipYystKt_draw 2000ms linear 223ms forwards;}.ipYystKt_18{stroke-dasharray:569 571;stroke-dashoffset:570;animation:ipYystKt_draw 2000ms linear 236ms forwards;}.ipYystKt_19{stroke-dasharray:569 571;stroke-dashoffset:570;animation:ipYystKt_draw 2000ms linear 249ms forwards;}.ipYystKt_20{stroke-dasharray:569 571;stroke-dashoffset:570;animation:ipYystKt_draw 2000ms linear 263ms forwards;}.ipYystKt_21{stroke-dasharray:19 21;stroke-dashoffset:20;animation:ipYystKt_draw 2000ms linear 276ms forwards;}.ipYystKt_22{stroke-dasharray:19 21;stroke-dashoffset:20;animation:ipYystKt_draw 2000ms linear 289ms forwards;}.ipYystKt_23{stroke-dasharray:19 21;stroke-dashoffset:20;animation:ipYystKt_draw 2000ms linear 302ms forwards;}.ipYystKt_24{stroke-dasharray:540 542;stroke-dashoffset:541;animation:ipYystKt_draw 2000ms linear 315ms forwards;}.ipYystKt_25{stroke-dasharray:1048 1050;stroke-dashoffset:1049;animation:ipYystKt_draw 2000ms linear 328ms forwards;}.ipYystKt_26{stroke-dasharray:297 299;stroke-dashoffset:298;animation:ipYystKt_draw 2000ms linear 342ms forwards;}.ipYystKt_27{stroke-dasharray:19 21;stroke-dashoffset:20;animation:ipYystKt_draw 2000ms linear 355ms forwards;}.ipYystKt_28{stroke-dasharray:19 21;stroke-dashoffset:20;animation:ipYystKt_draw 2000ms linear 368ms forwards;}.ipYystKt_29{stroke-dasharray:19 21;stroke-dashoffset:20;animation:ipYystKt_draw 2000ms linear 381ms forwards;}.ipYystKt_30{stroke-dasharray:540 542;stroke-dashoffset:541;animation:ipYystKt_draw 2000ms linear 394ms forwards;}.ipYystKt_31{stroke-dasharray:19 21;stroke-dashoffset:20;animation:ipYystKt_draw 2000ms linear 407ms forwards;}.ipYystKt_32{stroke-dasharray:19 21;stroke-dashoffset:20;animation:ipYystKt_draw 2000ms linear 421ms forwards;}.ipYystKt_33{stroke-dasharray:19 21;stroke-dashoffset:20;animation:ipYystKt_draw 2000ms linear 434ms forwards;}.ipYystKt_34{stroke-dasharray:1160 1162;stroke-dashoffset:1161;animation:ipYystKt_draw 2000ms linear 447ms forwards;}.ipYystKt_35{stroke-dasharray:364 366;stroke-dashoffset:365;animation:ipYystKt_draw 2000ms linear 460ms forwards;}.ipYystKt_36{stroke-dasharray:19 21;stroke-dashoffset:20;animation:ipYystKt_draw 2000ms linear 473ms forwards;}.ipYystKt_37{stroke-dasharray:19 21;stroke-dashoffset:20;animation:ipYystKt_draw 2000ms linear 486ms forwards;}.ipYystKt_38{stroke-dasharray:19 21;stroke-dashoffset:20;animation:ipYystKt_draw 2000ms linear 499ms forwards;}.ipYystKt_39{stroke-dasharray:189 191;stroke-dashoffset:190;animation:ipYystKt_draw 2000ms linear 513ms forwards;}.ipYystKt_40{stroke-dasharray:189 191;stroke-dashoffset:190;animation:ipYystKt_draw 2000ms linear 526ms forwards;}.ipYystKt_41{stroke-dasharray:189 191;stroke-dashoffset:190;animation:ipYystKt_draw 2000ms linear 539ms forwards;}.ipYystKt_42{stroke-dasharray:180 182;stroke-dashoffset:181;animation:ipYystKt_draw 2000ms linear 552ms forwards;}.ipYystKt_43{stroke-dasharray:180 182;stroke-dashoffset:181;animation:ipYystKt_draw 2000ms linear 565ms forwards;}.ipYystKt_44{stroke-dasharray:180 182;stroke-dashoffset:181;animation:ipYystKt_draw 2000ms linear 578ms forwards;}.ipYystKt_45{stroke-dasharray:180 182;stroke-dashoffset:181;animation:ipYystKt_draw 2000ms linear 592ms forwards;}.ipYystKt_46{stroke-dasharray:180 182;stroke-dashoffset:181;animation:ipYystKt_draw 2000ms linear 605ms forwards;}.ipYystKt_47{stroke-dasharray:180 182;stroke-dashoffset:181;animation:ipYystKt_draw 2000ms linear 618ms forwards;}.ipYystKt_48{stroke-dasharray:234 236;stroke-dashoffset:235;animation:ipYystKt_draw 2000ms linear 631ms forwards;}.ipYystKt_49{stroke-dasharray:234 236;stroke-dashoffset:235;animation:ipYystKt_draw 2000ms linear 644ms forwards;}.ipYystKt_50{stroke-dasharray:234 236;stroke-dashoffset:235;animation:ipYystKt_draw 2000ms linear 657ms forwards;}.ipYystKt_51{stroke-dasharray:234 236;stroke-dashoffset:235;animation:ipYystKt_draw 2000ms linear 671ms forwards;}.ipYystKt_52{stroke-dasharray:234 236;stroke-dashoffset:235;animation:ipYystKt_draw 2000ms linear 684ms forwards;}.ipYystKt_53{stroke-dasharray:234 236;stroke-dashoffset:235;animation:ipYystKt_draw 2000ms linear 697ms forwards;}.ipYystKt_54{stroke-dasharray:70 72;stroke-dashoffset:71;animation:ipYystKt_draw 2000ms linear 710ms forwards;}.ipYystKt_55{stroke-dasharray:77 79;stroke-dashoffset:78;animation:ipYystKt_draw 2000ms linear 723ms forwards;}.ipYystKt_56{stroke-dasharray:55 57;stroke-dashoffset:56;animation:ipYystKt_draw 2000ms linear 736ms forwards;}.ipYystKt_57{stroke-dasharray:71 73;stroke-dashoffset:72;animation:ipYystKt_draw 2000ms linear 750ms forwards;}.ipYystKt_58{stroke-dasharray:94 96;stroke-dashoffset:95;animation:ipYystKt_draw 2000ms linear 763ms forwards;}.ipYystKt_59{stroke-dasharray:103 105;stroke-dashoffset:104;animation:ipYystKt_draw 2000ms linear 776ms forwards;}.ipYystKt_60{stroke-dasharray:114 116;stroke-dashoffset:115;animation:ipYystKt_draw 2000ms linear 789ms forwards;}.ipYystKt_61{stroke-dasharray:114 116;stroke-dashoffset:115;animation:ipYystKt_draw 2000ms linear 802ms forwards;}.ipYystKt_62{stroke-dasharray:963 965;stroke-dashoffset:964;animation:ipYystKt_draw 2000ms linear 815ms forwards;}.ipYystKt_63{stroke-dasharray:151 153;stroke-dashoffset:152;animation:ipYystKt_draw 2000ms linear 828ms forwards;}.ipYystKt_64{stroke-dasharray:169 171;stroke-dashoffset:170;animation:ipYystKt_draw 2000ms linear 842ms forwards;}.ipYystKt_65{stroke-dasharray:549 551;stroke-dashoffset:550;animation:ipYystKt_draw 2000ms linear 855ms forwards;}.ipYystKt_66{stroke-dasharray:309 311;stroke-dashoffset:310;animation:ipYystKt_draw 2000ms linear 868ms forwards;}.ipYystKt_67{stroke-dasharray:211 213;stroke-dashoffset:212;animation:ipYystKt_draw 2000ms linear 881ms forwards;}.ipYystKt_68{stroke-dasharray:196 198;stroke-dashoffset:197;animation:ipYystKt_draw 2000ms linear 894ms forwards;}.ipYystKt_69{stroke-dasharray:33 35;stroke-dashoffset:34;animation:ipYystKt_draw 2000ms linear 907ms forwards;}.ipYystKt_70{stroke-dasharray:37 39;stroke-dashoffset:38;animation:ipYystKt_draw 2000ms linear 921ms forwards;}.ipYystKt_71{stroke-dasharray:27 29;stroke-dashoffset:28;animation:ipYystKt_draw 2000ms linear 934ms forwards;}.ipYystKt_72{stroke-dasharray:34 36;stroke-dashoffset:35;animation:ipYystKt_draw 2000ms linear 947ms forwards;}.ipYystKt_73{stroke-dasharray:33 35;stroke-dashoffset:34;animation:ipYystKt_draw 2000ms linear 960ms forwards;}.ipYystKt_74{stroke-dasharray:37 39;stroke-dashoffset:38;animation:ipYystKt_draw 2000ms linear 973ms forwards;}.ipYystKt_75{stroke-dasharray:27 29;stroke-dashoffset:28;animation:ipYystKt_draw 2000ms linear 986ms forwards;}.ipYystKt_76{stroke-dasharray:34 36;stroke-dashoffset:35;animation:ipYystKt_draw 2000ms linear 999ms forwards;}@keyframes ipYystKt_draw{100%{stroke-dashoffset:0;}}@keyframes ipYystKt_fade{0%{stroke-opacity:1;}94.44444444444444%{stroke-opacity:1;}100%{stroke-opacity:0;}}</style></svg>