<?xml version="1.0" encoding="utf-8"?>
<!-- Generator: Adobe Illustrator 23.0.1, SVG Export Plug-In . SVG Version: 6.00 Build 0)  -->
<svg version="1.1" id="e43251fe-2b99-4b63-8176-d5da4893f038"
	 xmlns="http://www.w3.org/2000/svg" xmlns:xlink="http://www.w3.org/1999/xlink" x="0px" y="0px" viewBox="0 0 1207.3 805.7"
	 style="enable-background:new 0 0 1207.3 805.7;" xml:space="preserve">
<style type="text/css">
	.st0{opacity:0.1;fill:#0FACF3;enable-background:new    ;}
	.st1{opacity:0.2;}
	.st2{fill:#3F3D56;}
	.st3{fill:#0FACF3;}
	.st4{opacity:0.1;enable-background:new    ;}
	.st5{fill:#F1C0C0;}
	.st6{fill:#BE6F72;}
	.st7{opacity:0.2;enable-background:new    ;}
	.st8{fill:#FED253;}
	.st9{fill:#FBBEBE;}
	.st10{fill:url(#SVGID_1_);}
	.st11{opacity:0.9;}
	.st12{fill:#E5E7EB;}
	.st13{fill:#FFFFFF;}
	.st14{fill:#ECECF3;}
	.st15{opacity:0.4;}
	.st16{fill:#D6D8E0;}
	.st17{fill:url(#SVGID_2_);}
	.st18{fill:url(#SVGID_3_);}
	.st19{fill:#A0616A;}
	.st20{fill:#2D293D;}
	.st21{fill:#7C7D7F;}
	.st22{fill:#F86D70;}
	.st23{opacity:0.61;}
	.st24{fill:#7C7D7F;stroke:#000000;stroke-width:5.000000e-02;stroke-miterlimit:10;}
	.st25{opacity:0.1;}
	.st26{opacity:0.62;fill:#7C7D7F;}
	.st27{font-family:'MyriadPro-Regular';}
	.st28{font-size:12px;}
</style>
<title>construction</title>
<path class="st0" d="M1177.8,465.3c0,19.6-2.4,39.2-7.1,58.2c-1.6,6.4-3.4,12.7-5.5,18.9c-2.6,7.6-5.5,15-8.9,22.3
	c-1.7,3.7-3.5,7.3-5.4,10.8c0,20.1-4.1,40-12.2,58.5c-14.6,33.1-40.5,59.9-73.2,75.4c-20.4,9.7-42.7,14.9-65.3,15H223.6
	c-34.6,0.1-68.5-9-98.4-26.3l-0.5-0.3c-4.3-2.5-8.4-5.1-12.5-7.9c-9.1-6.3-17.7-13.3-25.6-21.1C76,658.4,66.6,646.7,58.6,634
	C39.9,604.3,30,569.9,30,534.8C11,501.6,0,461.7,0,418.9c0-54,17.6-103.3,46.4-140.5c6-7.8,12.6-15.1,19.7-21.9
	c7-6.7,14.5-12.9,22.5-18.5c6.4-4.4,13.1-8.5,20-12c2.9-1.5,5.8-2.9,8.7-4.1c2.6-1.1,5.2-2.2,7.9-3.2c3.2-1.2,6.4-2.3,9.7-3.3
	s6.5-1.9,9.6-2.7c4.7-1.1,9.4-2.1,14.2-2.8c4-0.6,8-1,12-1.3c3.2-0.2,6.4-0.4,9.6-0.4h1.8c3.6,0,7.1,0.1,10.6,0.4
	c0.4-0.7,0.8-1.5,1.1-2.2c1.4-2.7,2.9-5.3,4.3-7.9v-0.1c0.3-0.5,0.5-0.9,0.8-1.4c1.2-2.1,2.4-4.2,3.7-6.3c0.6-1,1.1-1.9,1.7-2.9
	c0.1-0.2,0.3-0.5,0.4-0.7c0.6-1,1.2-2,1.8-3c3.1-4.9,6.3-9.8,9.6-14.5l0.9-1.2c0.5-0.7,1-1.5,1.6-2.2c1.4-1.9,2.8-3.9,4.2-5.8
	c1-1.4,2-2.7,3.1-4c2.6-3.3,5.3-6.7,8-10s5.6-6.6,8.5-9.9c0.4-0.4,0.8-0.9,1.2-1.3l4.3-4.7l0,0c0.2-0.2,0.4-0.4,0.6-0.6l0,0
	c0.5-0.6,1-1.1,1.6-1.6c2.3-2.4,4.6-4.8,7-7.2c12-12,24.8-23.1,38.3-33.4c0.5-0.4,1.1-0.8,1.6-1.2c2.5-1.9,5.1-3.8,7.7-5.7
	c14.2-10.2,29-19.4,44.4-27.7c1.1-0.6,2.1-1.2,3.2-1.7c13.8-7.3,28-13.8,42.5-19.6c7.9-3.1,16-6.1,24.1-8.8
	c5.4-1.8,10.9-3.5,16.4-5.1c8.6-2.5,17.3-4.7,26-6.7c25.7-5.8,51.9-9.3,78.3-10.7c8-0.4,16.1-0.6,24.3-0.6
	c39.5-0.1,78.8,4.9,117,14.8c0.8,1.2,2.2,1.9,3.6,1.9h3.4c1.5,0.4,2.9,0.8,4.4,1.2c8.1,2.4,16.2,4.9,24.1,7.7l2,0.7
	c19.5,7,38.6,15.3,56.9,25c16.6,8.7,32.5,18.6,47.7,29.4c2.3,1.7,4.6,3.4,6.9,5.1c2.8-1.8,5.6-3.5,8.4-5.1
	c11-6.3,22.7-11.3,34.9-14.9c25.4-7.5,52.3-8.6,78.2-3.1c33.3,7,63.3,24.5,87.7,49.4c9.9,10.2,18.7,21.4,26.3,33.4
	c0.6,0.9,1.1,1.7,1.6,2.6c6.5,10.6,12.1,21.8,16.7,33.4c0.2,0.4,0.3,0.8,0.5,1.3c4.3,10.8,7.7,22,10.3,33.3c0.1,0.6,0.3,1.1,0.4,1.7
	c2.4,11,4.1,22.1,4.9,33.4c0,0.4,0,0.8,0.1,1.2c0.4,5.8,0.6,11.7,0.6,17.6c0,5.3-0.2,10.6-0.5,15.8c0,0.6-0.1,1.2-0.1,1.8
	c-0.1,1.5-0.2,3-0.3,4.5c7.6,6.2,14.8,12.9,21.4,20.2c2.9,3.2,5.7,6.5,8.5,9.9c8.3,10.4,15.6,21.6,21.8,33.4
	C1168.1,387.6,1177.8,425.1,1177.8,465.3z"/>
<path class="st0" d="M1064.8,705.7c0,6.8-23.5,13.2-64.6,18.7H223.6c-34.6,0.1-68.5-9-98.4-26.3l-0.5-0.3
	c11.8-4.3,33.1-8.3,62.1-11.9l0,0l1.3-0.2c13-1.6,27.5-3.1,43.4-4.5c0.4,0,0.8,0,1.2-0.1l0,0c12.6-1.1,26-2.2,40.2-3.2
	c0.5,0,0.9-0.1,1.3-0.1c5.5-0.4,11.1-0.8,16.8-1.1l0,0l2.2-0.1c41.5-2.6,88.8-4.6,140-6h0.1c7.2-0.2,14.4-0.4,21.8-0.5
	c8.1-0.2,16.4-0.4,24.7-0.5c6.4-0.1,12.8-0.2,19.3-0.3h0.1c29.2-0.4,59.4-0.7,90.2-0.7c76.3,0,148.3,1.4,212.2,3.9h0.2
	c9.8,0.4,19.5,0.8,28.9,1.2l8,0.4c10.6,0.5,20.9,1,31,1.6l0,0C988,682.5,1064.8,693.4,1064.8,705.7z"/>
<g class="st1">
	<path class="st2" d="M680.3,664c0,1.1-0.2,2.2-0.4,3.2c-7-1.1-14-2.1-21-3v-0.9c0.1-3,0.9-5.9,2.5-8.5c2.1-3.3,5.2-5.3,8.6-5.2
		s6.4,2.3,8.3,5.7C679.8,658,680.4,661,680.3,664z"/>
	
		<ellipse transform="matrix(3.158516e-02 -0.9995 0.9995 3.158516e-02 2.7221 1296.0243)" class="st2" cx="670.2" cy="646.6" rx="14" ry="10.7"/>
	
		<ellipse transform="matrix(3.158516e-02 -0.9995 0.9995 3.158516e-02 20.3728 1279.9805)" class="st2" cx="670.7" cy="629.5" rx="14" ry="10.7"/>
	
		<ellipse transform="matrix(3.158516e-02 -0.9995 0.9995 3.158516e-02 37.993 1263.9456)" class="st2" cx="671.3" cy="612.4" rx="14" ry="10.7"/>
	
		<ellipse transform="matrix(3.158516e-02 -0.9995 0.9995 3.158516e-02 55.6337 1247.8914)" class="st2" cx="671.8" cy="595.2" rx="14" ry="10.7"/>
	<path class="st3" d="M635.4,476.8c-1.4-1.9-2.7-3.9-3.8-6l28.3-3.7l-30.4-0.7c-5.5-13-5.4-27.7,0.3-40.6l40.1,22.5l-36.8-28.8
		c14.9-24.1,46.5-31.5,70.6-16.6s31.5,46.5,16.6,70.6c-1.3,2.1-2.8,4.2-4.4,6.1c2.2,3,4,6.2,5.5,9.5l-37.1,17.8l39.3-11.8
		c5,16.6,1.3,34.6-9.8,47.9c16.8,22.8,11.9,54.9-10.9,71.7s-54.9,11.9-71.7-10.9c-14-19.1-13.2-45.3,2-63.4
		C619.3,521.1,620.2,494.9,635.4,476.8L635.4,476.8z"/>
	<path class="st4" d="M725.9,511.4c-0.4,11.5-4.6,22.5-12,31.3c16.8,22.8,11.9,54.9-10.9,71.7s-54.9,11.9-71.7-10.9
		c-14-19.1-13.2-45.3,2-63.4C626.8,531.2,726.1,505.6,725.9,511.4z"/>
</g>
<g class="st1">
	<path class="st2" d="M528.3,664c0,1.1-0.2,2.2-0.4,3.2c-7-1.1-14-2.1-21-3v-0.9c0.1-3,0.9-5.9,2.5-8.5c2.1-3.3,5.2-5.3,8.6-5.2
		s6.4,2.3,8.3,5.7C527.8,658,528.4,661,528.3,664z"/>
	
		<ellipse transform="matrix(3.158516e-02 -0.9995 0.9995 3.158516e-02 -144.4825 1144.1031)" class="st2" cx="518.2" cy="646.6" rx="14" ry="10.7"/>
	
		<ellipse transform="matrix(3.158516e-02 -0.9995 0.9995 3.158516e-02 -126.8423 1128.0688)" class="st2" cx="518.7" cy="629.5" rx="14" ry="10.7"/>
	
		<ellipse transform="matrix(3.158516e-02 -0.9995 0.9995 3.158516e-02 -109.2117 1112.0244)" class="st2" cx="519.3" cy="612.4" rx="14" ry="10.7"/>
	
		<ellipse transform="matrix(3.158516e-02 -0.9995 0.9995 3.158516e-02 -91.571 1095.9702)" class="st2" cx="519.8" cy="595.2" rx="14" ry="10.7"/>
	<path class="st3" d="M483.4,476.8c-1.4-1.9-2.7-3.9-3.8-6l28.3-3.7l-30.4-0.7c-5.5-13-5.4-27.7,0.3-40.6l40.1,22.5l-36.8-28.8
		c14.9-24.1,46.5-31.5,70.6-16.6c24.1,14.9,31.5,46.5,16.6,70.6c-1.3,2.1-2.8,4.2-4.4,6.1c2.2,3,4,6.2,5.5,9.5l-37.1,17.8l39.3-11.8
		c5,16.6,1.3,34.6-9.8,47.9c16.8,22.8,11.9,54.9-10.9,71.7s-54.9,11.9-71.7-10.9c-14-19.1-13.2-45.3,2-63.4
		C467.3,521.1,468.2,494.9,483.4,476.8L483.4,476.8z"/>
	<path class="st4" d="M573.9,511.4c-0.4,11.5-4.6,22.5-12,31.3c16.8,22.8,11.9,54.9-10.9,71.7s-54.9,11.9-71.7-10.9
		c-14-19.1-13.2-45.3,2-63.4C474.8,531.2,574.1,505.6,573.9,511.4z"/>
</g>
<g class="st1">
	<path class="st2" d="M943.5,675c-0.1,2-0.3,4.1-0.7,6.1c-13.4-2.1-26.9-4.1-40.5-5.7v-1.7c0.1-5.8,1.8-11.4,4.8-16.3
		c4-6.3,10-10.2,16.6-10s12.4,4.5,16,11C942.4,663.5,943.7,669.2,943.5,675z"/>
	
		<ellipse transform="matrix(3.158516e-02 -0.9995 0.9995 3.158516e-02 253.7395 1544.6641)" class="st2" cx="924" cy="641.4" rx="27" ry="20.6"/>
	
		<ellipse transform="matrix(3.158516e-02 -0.9995 0.9995 3.158516e-02 287.69 1513.7833)" class="st2" cx="925" cy="608.4" rx="27" ry="20.6"/>
	
		<ellipse transform="matrix(3.158516e-02 -0.9995 0.9995 3.158516e-02 321.6412 1482.9027)" class="st2" cx="926.1" cy="575.5" rx="27" ry="20.6"/>
	
		<ellipse transform="matrix(3.001518e-02 -0.9995 0.9995 3.001518e-02 357.3417 1450.3669)" class="st2" cx="926" cy="541.1" rx="27" ry="20.6"/>
	<path class="st3" d="M857,314.5c-2.7-3.7-5.1-7.5-7.3-11.5l54.4-7.2l-58.5-1.4c-10.6-25.1-10.4-53.3,0.6-78.2l77.3,43.2l-70.7-55.5
		c29.4-45.9,90.5-59.3,136.4-29.9c45,28.8,58.9,88.3,31.4,134.1c-2.5,4-5.2,7.8-8.3,11.4c4.2,5.7,7.8,11.9,10.7,18.4L951.4,372
		l75.7-22.8c9.7,31.9,2.6,66.6-18.8,92.1c32.3,43.9,23,105.7-20.9,138c-43.9,32.3-105.7,23-138-20.9c-27-36.7-25.4-87.1,3.8-122
		C826.2,399.8,827.8,349.4,857,314.5L857,314.5z"/>
	<path class="st4" d="M1031.3,381.1c-0.7,22.1-8.8,43.4-23,60.3c32.3,43.9,23,105.7-20.9,138c-43.9,32.3-105.7,23-138-20.9
		c-27-36.7-25.4-87.1,3.8-122C840.5,419.3,1031.7,370,1031.3,381.1z"/>
</g>
<polygon class="st5" points="157.8,676.7 168.3,676.7 183.1,676.7 201.8,372.9 387,63.9 379,55.3 379,33.4 178.7,365.8 "/>
<polygon class="st4" points="169.4,676.7 183.1,676.7 201.8,372.9 387,63.9 379,55.3 187.9,368.3 "/>
<polygon class="st5" points="126.9,679.3 606.8,716 607.2,716 1071.6,687.5 1071.9,687.4 1071.9,667.8 560.2,658.4 133.3,658 
	130.2,658 129.9,660.2 "/>
<polygon class="st4" points="126.9,679.3 606.8,716 607.2,716 1071.6,687.5 1071.9,687.1 1071.9,668.2 1071.5,668.2 606.8,683.8 
	133.3,658 133.3,658 132.4,658.6 129.9,660.2 "/>
<polygon class="st4" points="126.9,679.3 606.8,716 606.8,683.8 132.4,658.6 129.9,660.2 "/>
<polygon class="st5" points="378.9,54.8 590.5,281.9 583.9,681.3 601.9,683.5 602.2,683.5 620.2,683.5 622.3,299 1018.4,431.4 
	1025.1,667 1039.6,668.6 1044.5,669.1 1033.1,415 619,269.6 392,33.6 378.9,33.6 "/>
<polygon class="st4" points="620.7,291.7 622.3,299 1018.4,431.4 1025.1,667 1039.6,668.6 1028.2,426.5 "/>
<polygon class="st4" points="378.9,54.8 590.5,281.9 583.9,681.3 601.9,683.5 606.8,268.8 378.9,33.6 "/>
<polygon class="st5" points="621.4,452 766.7,480.6 766.8,480.6 1021.3,530.7 1032.9,526.1 1032.9,525.3 1032.1,509 621.6,426 "/>
<polygon class="st4" points="766.8,480.6 1021.3,530.7 1032.9,526.1 1032.9,525.3 "/>
<polygon class="st5" points="776.5,350.6 780.4,566.9 782.5,677.9 800.4,677.3 811.6,676.9 808.1,353.7 800.4,351.1 798.7,350.6 "/>
<polygon class="st4" points="776.7,350.5 776.7,350.6 780.4,566.9 782.5,677.9 800.4,677.3 800.4,350.5 "/>
<path class="st2" d="M496.3,405.8c1,0.6,2.1,1.2,3,2c1.1,1,2.1,2.1,3,3.3c4.3,5.5,8.3,12,7.8,19c0,2.1-0.8,4-2.2,5.5
	c-1.8,1.5-4.3,1.6-6.6,1.6c-2.5,0-5.2,0-7.4-1.3s-4-3.8-6.6-3.8c-0.4,0.1-0.7,0.1-1.1,0c-0.9-0.3-1.1-1.5-1.6-2.2
	c-1-1.3-3.1-1-4.7-0.4s-3.3,1.5-4.9,0.8c-0.9-0.5-1.6-1.2-2.1-2.1c-3.7-6-4.5-13.2-5.2-20.2c-0.4-4.2-3.7-18.7,5.3-15.4
	c4,1.4,7.7,4.3,11.4,6.4L496.3,405.8z"/>
<path class="st2" d="M487.3,407.2c1.7,1.2,3.9,1.1,5.5-0.2c1.5-1.3,2.4-3.2,2.7-5.2c1-0.3,1.5,1,2.1,1.8c1.1,1.4,3.4,1.3,4.4,2.8
	c0.7,1,0.5,2.4,1,3.5c0.6,1.5,2.3,2.2,3.4,3.4c1,1.3,1.8,2.8,2.2,4.4l1.6,4.9c0.8,2,1.3,4.2,1.5,6.4c0.2,2.2-0.5,4.4-1.9,6.1
	c-2.2,2.4-5.8,2.6-9,2.5c-1.1,0-2.1-0.1-3.2-0.4c-2.8-0.9-4.6-3.7-5.4-6.6s-0.7-5.9-1.1-8.8c-0.5-2.9-1.3-5.7-2.5-8.4
	c-0.9-2.1-3.3-5.2-3.3-7.4C486.2,406.1,486.7,406.8,487.3,407.2z"/>
<path class="st6" d="M490.9,397.1c-0.5-1.4-0.7-2.9-0.8-4.4c0-3,1.4-5.8,2.8-8.5l-11.4,1.5c-1.4,0.2-2.9,0.5-3.7,1.6
	c-0.6,1.2-0.6,2.5,0,3.7c0.6,1.1,1,2.3,1.4,3.6c0,1.1,0.2,2.2,0.4,3.2c0.4,0.8,0.9,1.5,1.5,2.1c3.3,3.6,5.7,7.9,8.2,12.1
	c-0.1-0.1,6.9-5.5,6.6-7.3c-0.2-1-2.2-2.2-2.8-3.2C492,400.2,491.4,398.7,490.9,397.1z"/>
<polygon class="st5" points="588.9,358 588.9,367.9 420.3,400.8 411.5,406.1 381.3,406.1 381.3,400.5 547,360.5 "/>
<polygon class="st4" points="588.9,367.9 420.3,400.8 411.5,406.1 381.3,406.1 548.3,370.4 "/>
<path class="st3" d="M453.5,637.7c-3.9-4.7-10.5-6.1-15.9-3.4c-0.6,0.3-1.1,0.7-1.5,1.1c-1,1.4-0.4,3.3-0.3,5.1
	c0.2,4.2-3.1,7.7-6.1,10.6c-1.7,1.5-3.1,3.3-4,5.4c-0.7,2.2-0.2,4.9,1.8,6c0.9,0.4,1.8,0.7,2.7,0.8c3.2,0.6,6.5,0.7,9.7,0.3
	c3.2-0.6,6.3-2.4,7.7-5.4c0.3-0.8,0.7-1.5,1.3-2.1c1.8-1.4,4.5,0.2,6.5-0.8c1.6-0.8,1.7-2.1,1.7-3.8
	C457.2,646.8,456.5,641.5,453.5,637.7z"/>
<path class="st3" d="M477.5,637.5c1.2,3.2,1.4,6.8,1.6,10.2c0.1,2,0.1,4.1-0.9,5.8s-3.2,2.6-5.2,3c-4.2,0.9-9,0-11.7-3.3
	c-2.1-2.5-2.5-6-2.1-9.3c0.3-2.7,1-5.8-0.9-7.8c-0.5-0.5-1.1-0.9-1.6-1.4c-1-1.2-0.8-3.1-0.3-4.6c0.7-1.4,1.2-2.9,1.6-4.5
	c0.1-0.7,13.5,0.5,14.8,1.1c1.7,0.8,1.4,2.2,1.9,3.9C475.3,633.1,476.6,635.2,477.5,637.5z"/>
<path class="st2" d="M480,493.8c2.6,1.7,3.7,5.1,4.1,8.2c1.1,8.5-0.9,17.2-1,25.8c-0.1,12.1,3.4,24.4,0.4,36.1c-1.8,7-0.3,15-2,22.1
	c-0.5,2.1-1.4,4.1-1.9,6.2c-1,4.5,0,9.3,1.5,13.8c0.5,1.2,0.7,2.5,0.9,3.7c-0.1,2-0.6,3.9-1.5,5.6l-6,14.2c-0.7,1.6-3.3,1.8-5,2.1
	c-3.2,0.4-6.7,0.7-9.3-1.3s-3.2-5.3-3.6-8.3c-0.7-5.9-1.1-11.9-1-17.8c0.1-1.6,0-3.1-0.4-4.6c-0.5-1.7-1.8-3.2-2.1-5
	c-0.4-2.3,0.8-4.6,1.2-7c0.3-2.2,0.3-4.3-0.1-6.5c-0.4-3.2-0.8-6.4-1.4-9.6c-0.7-4.5,0.3-8.8,1-13.3c0.6-4.2-0.2-8.5-1-12.6
	c0.1,3.4-0.4,6.7-1.3,10c-0.5,1.6-1.3,3.1-1.8,4.7c-2,7.3,2.3,14.9,1.7,22.4c-0.3,3.5-1.7,7-1.3,10.5c0.3,2.5,1.5,4.9,2.3,7.3
	s1.2,5.2,0,7.5c-3.3,6.1-0.8,14.5,2.1,20.8c0.6,1.1,1.1,2.3,1.5,3.5c0.9,2.8,0.1,5.9,0.4,8.8c-1.7,0.3-3.4-0.2-4.7-1.4
	c-0.4-0.5-0.8-1-1.2-1.5c-1.2-1.1-2.6-2-4.2-2.6c-0.9-0.5-2-0.8-3-0.7c-1.1,0.3-2.1,0.9-2.9,1.8c-1,0.9-2,1.7-3.1,2.4
	c-0.5,0.4-1,0.6-1.6,0.7c-0.6,0.1-1.2-0.2-1.5-0.8c-0.1-0.2-0.1-0.3-0.1-0.5c-0.4-3-0.6-6.1-0.6-9.1c0-5.2-6.3-8.8-7-14
	c-0.6-4.2,0.5-8.4,0.1-12.6c-0.2-2.2-0.8-4.3-0.8-6.4c0-1.4,0.3-2.8,0.4-4.2c0.1-1.5,0.1-3.1-0.1-4.6l-0.3-4.8
	c-0.3-4.8-0.6-9.6-2.5-14c-2.2-5.1-3.6-10.5-3.9-16.1c-0.2-3.5-0.1-7-0.5-10.5c-0.4-3.2-1.2-6.3-0.9-9.5c0.2-2.5,1-4.8,1.2-7.3
	c0.4-4.7-1.4-9.3-2.8-13.9s-2.5-9.5-0.6-13.9c0.3-0.7,0.7-1.4,1.3-1.9c0.7-0.5,1.5-0.8,2.4-0.9c17.2-3.6,34.7-4.7,52.2-3.3
	C474.8,491.5,477.6,492.3,480,493.8z"/>
<circle class="st6" cx="423.2" cy="371.6" r="16"/>
<path class="st6" d="M420.1,391.6c0.2,0.9,0.2,1.9,0,2.8c-0.2,0.6-0.6,1.2-1,1.8c-1.6,2-3.3,3.9-5.1,5.6c0.9,2.1,2.7,3.8,4.8,4.7
	c2.1,0.9,4.3,1.5,6.6,1.9c2.2,0.7,4.6,0.3,6.5-1.1l8.9-5.3c1.3-0.7,2.6-1.6,3.7-2.7c1.6-1.7,2.5-3.9,2.6-6.2c0-0.4-0.1-0.8-0.3-1.2
	c-0.3-0.3-0.8-0.5-1.2-0.5c-3.1-0.7-5.6-3.2-7-6.1c-1.3-3-2.1-6.1-2.5-9.3l-9.5,5c-1.4,0.8-2.8,1.5-4.3,2.1
	c-0.9,0.4-2.8,0.8-3.5,1.6C417.5,386.2,419.8,389.7,420.1,391.6z"/>
<path class="st2" d="M414,398.8c-1.4,1.1-2.4,2.5-3.1,4.2c-0.6,2,0,4.1,0.6,6.1c2.6,8.4,4.6,17.1,6,25.8c0.8,6,1.1,12.1,1.6,18.2
	c0.8,12.4,2.1,32.1,3.7,44.4c6,0.3,11.9-1.5,17.8-2.1c11.1-1.2,22.6,1.5,33.5-1c-2.6-10.4-5.3-28.2-7.9-38.7
	c-1.2-4.1-2-8.3-2.4-12.5c-0.2-3-0.1-6.1,0-9.2c0.1-6-0.2-12-0.6-18c-0.4-7-0.8-14-2.4-20.9c-0.1-0.9-0.5-1.7-1.2-2.3
	c-1-0.7-2.3-0.5-3.5-0.3c-3.6,0.5-7.3-0.4-10.4-2.5c-1.3-0.9-3.1-2-4.3-1c-0.5,0.6-0.9,1.3-1,2.1c-1.1,2.9-3.4,5.1-6.3,6.2
	c-2.8,1-5.8,1.6-8.9,1.8c-0.9,0.2-1.9,0.1-2.8-0.3c-1.4-0.9-1.5-4-3.3-4.2C417.5,394.4,415,397.8,414,398.8z"/>
<path class="st3" d="M437.6,423.2c-3.7-3.5-5.3-8.6-8-13c-1.8-2.9-4.2-5.5-6.9-7.6c-1.4-0.9-2.6-2-3.8-3.2c-1-1.2-1.7-2.7-3.1-3.2
	c-1.2-0.3-2.5,0.1-3.4,0.9c-0.9,0.8-1.7,1.7-2.5,2.7c-4.2,4.4-11.7,5-15,10.1c-0.9,1.1-1.5,2.4-1.8,3.8c-1,7.4,0.9,14.9,5.3,20.9
	c0.8,1.4,2.2,2.5,3.7,3c-0.2,1.9,0,3.8,0.7,5.5c1.9,6.3,4.1,12.5,6.8,18.5c-0.6,2.4-1.1,4.8-1.3,7.2c-0.7,6.1,0,12.3-0.7,18.4
	c-0.5,5-2,9.9-2,14.9c0,0.8,0.1,1.8,0.8,2.2c0.4,0.2,0.8,0.3,1.2,0.3l12.3,0.4c7.1,0.2,14.4,0.4,21.4-0.9c0.9-0.1,1.8-0.4,2.7-0.9
	c2.4-1.3,3.2-4.3,3.5-7c0.5-3.5,0.7-7,0.6-10.5c1.5,4.7,3.3,9.6,7.8,11.6c2.4,1.1,5.1,1,7.7,0.9c5.6-0.3,11.2-0.8,16.8-1.7
	c1.2,0.1,2.3-0.7,2.5-1.9c0-0.2,0-0.4,0-0.6l0.1-5.5c0.1-11.1-2.6-21.7-3.7-32.7c-0.3-3.5-0.3-7-1.2-10.4c-0.4-1.4-0.9-2.8-1.2-4.3
	c-0.3-1.4-0.4-2.8-0.5-4.3l-0.8-11c-0.4-5.1-0.9-10-1.3-15.1c-0.2-4.9-0.9-9.9-2.1-14.7c-0.9-3-2.7-6.4-5.8-6.8
	c-1.7-0.2-3.3,0.5-4.9,1c-3.9,1.2-8.1,1.2-12,0c-1.2-0.5-2.5-0.8-3.7-1c-1.3-0.2-2.6,0.4-3.4,1.4c-0.4,0.8-0.6,1.6-0.5,2.5
	C441.3,403.2,440.4,413.5,437.6,423.2z"/>
<path class="st2" d="M421.6,423.5c-4.6-4.9-9.3-9.8-15.3-12.9c-2.3-1.2-5-2.1-7.6-1.7s-5,2.7-4.9,5.3c0.1,1.6,1.1,3.1,1.4,4.7
	c0.4,1.8-0.2,3.7,0.4,5.5c0.5,1.1,1.1,2.2,2,3.1l7.1,8.4c3,3.5,6,7,9.9,9.5s8.9,3.5,13.1,1.8c3-1.4,5.5-3.7,7.2-6.6
	c1.8-2.8,3-5.9,4.6-8.8c2.6-4.6,6-8.7,10-12.1c-2.1-0.5-4.7-1.3-6-3c-0.4-0.5-0.7-1.1-1-1.7l-1.6-3.5c-1.1-0.1-2.2,0.4-3,1.1
	c-0.7,0.8-1.4,1.6-2.2,2.3c-1.4,1.1-3.3,1.4-4.6,2.6c-0.5,0.5-0.9,1.1-1.3,1.7C427.8,421.7,424.8,423.3,421.6,423.5z"/>
<path class="st6" d="M449.8,402.6c3.5-6.3,3.3-13.9,4.3-21.1c0.1-1.9,0.8-3.7,1.9-5.2c2-2.3,5.5-2.3,8.5-2c0.9,0.1,2,0.5,2,1.4
	c-0.1,0.3-0.2,0.6-0.5,0.9c-2.9,3.8-4.7,8.3-4.9,13.1c1.6,1.1,4-1.1,5.5,0c1,0.8,0.5,2.5-0.1,3.7c-1.4,2.8-2.8,5.5-4.3,8.3
	c-1.2,2.4-2.7,4.6-4.6,6.6c-1.3,1.2-2.8,2.2-4,3.4c-3,2.8-4.8,6.8-7.9,9.5c-0.5,0.6-1.3,0.7-1.9,0.2c-0.1-0.1-0.1-0.1-0.2-0.2
	c-1.5-1.3-2.8-2.8-3.8-4.6c-1.2-2.2-1-2.8,0.9-4.4C444.3,409.5,447.7,406.6,449.8,402.6z"/>
<path class="st3" d="M415.8,419.2c0.6,0.4,1.3,0.8,2,0.5c0.3-0.2,0.5-0.4,0.7-0.6c1.1-1.5,2.1-3.2,2.8-4.9c0.1-0.2,0.2-0.5,0.2-0.8
	c0-0.6-0.6-1.1-1.1-1.5c-2.8-1.8-5.9-3.3-9.1-4.3c-2.6-1.1-5.4-1.7-8.2-1.6c-2.1,0.1-4.1,1.1-5.5,2.8c-2,2.6,1.4,3.4,3.5,4.3
	C405.9,415.2,411.2,416.5,415.8,419.2z"/>
<path class="st4" d="M412.6,436.2c-0.1,0.5,0.1,0.9,0.4,1.3c0.3-1.4-0.1-2.9,0.2-4.4c0.4-2.1,2.5-3.8,2.7-5.9
	C412.1,426.5,412.6,433.9,412.6,436.2z"/>
<polygon class="st7" points="588.9,358 588.9,367.9 548.3,370.4 547,360.5 "/>
<path class="st2" d="M408.8,374c2.5-2.1,1.1-6.4,2.8-9.2c1.1-1.4,2.6-2.5,4.4-3c2-0.9,4.1-1.5,6.4-1.8c2.2-0.2,4.4,0.6,6,2.2
	c0.6,0.7,1.1,1.6,1.7,2.4c1.5,1.8,4,2.7,6.3,2.2c1.3-0.3,2.7-1.3,2.6-2.7c-0.1-0.8-0.6-1.6-1.2-2.1l-2.9-3.2
	c-3.3-3.6-6.9-7.4-11.6-8.3c-3.3-0.6-6.7,0.3-9.9,1.3c-1.3,0.4-2.7,1.1-3.1,2.4c-0.2,0.9,0.1,1.9-0.1,2.8c-0.4,1.8-2.7,2.4-3.8,3.9
	s-0.8,3.3-1.1,5s-1.2,3.3-1.3,5.1c-0.1,1,0.5,3,1.6,3.4S408,372.7,408.8,374z"/>
<path class="st8" d="M437.9,362.7c-0.8-4.4-2.7-8.6-5.3-12.2c-2.4-3.4-5.7-6-9.5-7.5c-3.9-1.5-8.2-1.2-11.8,0.9
	c-2.6,1.9-4.7,4.4-5.9,7.4c-2.6,5.6-3.5,12.4-0.5,17.8c1.2-1.5,3.3-0.8,5.1-1.3c2.3-0.6,4.2-2.2,6.4-3.1
	C422.9,361.8,430.9,364.1,437.9,362.7z"/>
<path class="st4" d="M406.4,362.4c-0.2-1.8-0.4-3.9,0.9-5.2c0.1-0.2,0.3-0.2,0.5-0.2c0.2,0.1,0.3,0.2,0.4,0.4
	c0.7,1.2,1.4,2.4,1.9,3.7c-1.5-0.4-3.1,0.3-4,1.5"/>
<path class="st4" d="M429.8,357.3l-0.4-3.6c-0.1-0.3,0-0.6,0.1-0.9c0.3-0.5,0.9-0.7,1.5-0.4c0.5,0.3,0.9,0.7,1.2,1.2
	c0.8,1.3,1.5,2.6,2.1,4.1c-1.6-0.3-3.3-0.3-4.9,0.1"/>
<polygon class="st4" points="438.8,502.2 438.8,510.4 431.9,510.8 395.6,510.8 395.6,502.2 "/>
<polygon class="st5" points="438.8,502.2 438.8,510.8 395.6,510.8 281.1,367.3 281.1,360.5 305.1,360.5 "/>
<polygon class="st4" points="438.8,502.2 438.8,510.8 395.6,510.8 281.1,367.3 281.1,360.5 305.1,360.5 "/>
<polygon class="st4" points="438.8,502.2 438.8,510.8 395.6,510.8 281.1,367.3 281.1,360.5 396.3,502.2 "/>
<path class="st3" d="M296.1,646.1c0.3,1.6-0.8,3.2-2.4,3.5c0,0,0,0,0,0h-0.2c-2.8,0.9-5.7,1.9-7.7,4s-2.4,6.1,0,7.8
	c1.2,0.7,2.6,1.1,4,1.1c4.5,0.3,9.3,0.3,13.4-1.7c2.9-1.4,5.7-3.7,8.9-3.5c1.7,0.1,3.5,0.9,4.9,0.1s1.9-2.9,1.9-4.7
	c0-3.7-0.5-7.4-1.6-10.9c-0.1-0.5-6.5-0.8-7.3-1l-7.7-1c-1.5-0.2-4.6-1.3-5.8-0.1S296.1,644.6,296.1,646.1z"/>
<path class="st3" d="M342.1,621.1c0.3,1.8,0.9,3.6,1.6,5.2c1.1,2.7,2.4,5.6,5.1,6.9c2.4,1.2,5.3,0.8,7.7-0.4c1-0.4,1.9-1.1,2.6-1.9
	c0.8-1.4,1.1-2.9,1-4.5c0-3.9-0.2-7.9-2-11.3c-1.5-3-4.2-5.6-4.2-8.9l-9.1,1.7c-0.5,0-1,0.2-1.3,0.5c-0.3,0.3-0.5,0.7-0.6,1.1
	C341.8,613.4,341.6,617.3,342.1,621.1z"/>
<path class="st3" d="M233.3,526.1c-0.4,3.2-0.2,6.7,1.5,9.5s5.2,4.6,8.3,3.5c0.3-0.1,0.6-0.3,0.8-0.6c0.1-0.3,0-0.7-0.1-1
	c-1.4-3.6-1.2-7.6,0.3-11.1c0.2-0.5,0.6-1,1.1-0.8c0.2,0.1,0.4,0.3,0.4,0.5c0.5,0.8,0.7,1.8,0.7,2.8c-0.1,0.9-0.2,1.8-0.1,2.7
	c0.2,0.9,1.1,1.7,1.9,1.3c0.5-0.3,0.8-0.8,0.9-1.3c2.2-6.5,1.2-13.5,0.2-20.3c0-0.6-0.4-1.1-1-1.1H248c-4.7-0.5-7.3-1.6-10,2.8
	C235.7,516.6,233.3,521.7,233.3,526.1z"/>
<path class="st2" d="M288.5,509.7c-1.4,5.8-2.8,11.7-2.9,17.7c0,3.7,0.3,7.4,0.8,11.1l1,8.7c0.4,2.9,0.7,5.8,1.2,8.7
	c0.3,1.5,0.5,3,0.5,4.5c-0.1,1.5-0.3,3-0.7,4.5c-0.6,3.1-1,6.2-1,9.3c-0.1,5,0.5,10,0.9,15c0.8,10,0.7,20-0.3,29.9
	c-0.4,2.7,0.2,5.4,1.6,7.7c0.6,0.7,1.1,1.5,1.5,2.4c0.8,2.3-1,4.6-1.5,6.9c-0.6,3.8,2,7.4,5.8,8c8,1,16.2,0.5,23.4,4.2
	c0.8-2.2-0.9-4.7-0.1-7c0.5-1.4,1.8-2.3,2.7-3.5c1.2-1.8,1.8-3.9,1.7-6.1c0-2.8-0.5-5.6-1.5-8.3c-0.9-2.2-2.1-4.4-2-6.7
	c0-1.2,0.4-2.4-0.1-3.5c-0.3-0.6-0.8-1.2-1.3-1.6c-3-3.3-4.8-7.4-5.2-11.8c-0.4-4.4-0.2-8.8,0.4-13.1c0.5-4.1,1.1-8.5,3.8-11.7
	c-1.2-9.8-0.5-19.7,2.1-29.3c0.3-0.9,0.7-1.9,1.6-2.1c0.7-0.1,1.4,0.2,1.9,0.8c1.6,1.5,2.3,3.6,3,5.6c0.8,2.2,1.5,4.6,0.9,6.8
	c-0.2,1-0.7,1.9-1,2.8c-0.6,1.9-0.5,4,0.3,5.9c0.4,0.7,0.6,1.4,0.7,2.2c-0.1,0.7-0.3,1.3-0.6,1.9c-0.8,2.4-0.4,5,0.8,7.2
	c1.3,2.1,2.8,4.1,4.7,5.7c-0.9,3.8-0.6,7.8,0.6,11.6c0.2,0.3,0.2,0.7,0.1,1.1c-0.2,0.4-0.6,0.5-1,0.8c-1,0.8-0.4,2.4,0.3,3.4
	c1.8,2.9,3.9,5.8,6.1,8.4c2,2.4,1.8,7,4.8,7.9c1.3,0.3,2.5,0.3,3.8,0c2.9-0.5,6.2-1.3,7.7-3.9c0.6-1.1,0.8-2.4,1.8-3.2
	s2.1-0.9,2.6-1.9s-0.1-2.2,0.1-3.3s1.1-2,1.5-3.2c0.7-2.7-2.4-4.9-2.8-7.7c-0.6-4,4.4-7,4.2-11c-0.4-8.7-0.7-17.4-1.2-26.1
	c-0.6-7.8-0.6-15.6-0.2-23.4c0.4-4.8,1-9.9-0.8-14.4c-2.6-6.4-9.6-9.9-16.5-10.6s-13.6,0.9-20.4,2
	C311.2,510.7,299.8,511,288.5,509.7z"/>
<circle class="st9" cx="308.8" cy="398.1" r="16"/>
<path class="st9" d="M302.3,417.1c-1.1,2.6-3.7,4.2-6.5,4.1c-0.6,2.4,0.8,4.8,2.4,6.7c6.7,7.8,17.2,11.4,27.3,9.4
	c1.9-0.3,3.8-1.1,5.4-2.2c2.2-1.8,3.6-4.3,4.1-7.1c0.5-2.8,0.6-5.6,0.4-8.4c0.1-0.6-0.1-1.1-0.4-1.5c-0.4-0.3-0.9-0.5-1.4-0.5
	c-3.4-0.3-6.9-0.4-9.9-2.1s-5.1-5.4-3.6-8.5c-0.2,0.5-6.1,0.7-6.8,0.8c-2.4,0.3-4.8,0.7-7.2,1.2c-1.2,0.1-2.3,0.3-3.4,0.6
	c-1.5,0.8-0.9,0.4-0.6,1.7C302.4,413.5,303.1,415,302.3,417.1z"/>
<path class="st2" d="M314.4,426.9c-2.2,0-4.3-0.2-6.4-0.7c-2.1-0.5-4-1.7-5.3-3.5c-0.7-1.1-1.2-2.5-2.4-3.2c-1.9-1-4.1,0.7-5.7,2.2
	c-1.4,1.5-3,2.8-4.8,3.9c-2.1,1.1-4.6,1.5-6.7,2.9c-1.6,1.2-2.9,2.7-4,4.3L265,452.1c-5.7,7.8-10.6,16.1-15.7,24.3
	c-4.4,7.1-6.7,15.3-10,22.9c-0.3,0.5-0.4,1-0.3,1.5c0.1,0.5,0.8,0.9,1.2,0.6c-1.5,1.5-0.2,4-0.5,6.1c-0.4,1.5-1.2,2.8-2.4,3.7
	c2.2-0.3,4.4-0.2,6.6,0.3c2.2,0.6,4.3,1.6,6.2,3c1.2-0.2,1.1-2.3,2-3.1c0.5-0.5,1.3-0.4,2.1-0.5c2.7-0.5,3.7-3.7,5.8-5.5
	c1.7-1.5,4.1-2,5.9-3.4c2.9-2.3,3.6-6.4,5.1-9.8c1.3-2.9,3.4-5.4,4.5-8.4c0.8-1.9,1.1-4,2.2-5.8c1.7-2.9,4.9-4.4,8-5.8
	c1.9-0.9,4-1.8,6.1-1.6c-0.1,4.6-0.7,9.2,0.3,13.8c0.4,1.6,0.8,3.2,1.3,4.8c1.9,7.2,2.4,14.6,2.5,22c4.6-1,9.3-1.6,14-1.7
	c3.7-0.1,7.4,0.4,11.1,0.3c4.4-0.1,8.8-0.9,13.1-1.2s9,0,12.9,2c-0.3-6.3-0.1-12.7,0.5-19l1.1-9.9c0.2-2.9,0.7-5.8,1.3-8.6
	c0.6-2.3,1.4-4.5,2.1-6.8c2.3-8,1.8-16.5,1.4-24.9c-0.2-4.3-1.9-8.5-3.8-12.3c-0.7-1.4-1.5-2.8-2.4-4.1c-4.8-6.6-12.6-10.2-20.7-9.7
	c-0.5,0-1,0.1-1.5,0.3c-0.8,0.5-1.5,1.3-1.9,2.3C321.1,421.5,318.1,424.6,314.4,426.9z"/>
<path class="st2" d="M294.7,403.4c0.5-1,1.7-1.4,2.4-2.2c1.4-1.5,0.8-4,1-6c0.4-3,2.9-5.5,5.7-6.6c2.9-0.9,6-1.1,9-0.6
	c1.4,0.1,2.8,0.6,4.1,1.4c0.5,0.4,1,0.9,1.5,1.2c1.9,1.1,4.3,0.6,5.4-1.3c-3.5-4.3-7.5-8.8-12.8-10.1c-1.8-0.4-3.7-0.6-5.6-0.5
	c-2.5,0-5.1-0.1-7.4,0.9c-3.1,1.3-5.3,4.3-6.5,7.5c-1,3.2-1.5,6.6-1.6,10c-0.2,2.3-0.2,4.5,0,6.8c0.4,3.1,1.5,6,3.3,8.6
	c0.2,0.4,0.6,0.7,1,0.9C298.8,415.4,294.3,404.2,294.7,403.4z"/>
<path class="st8" d="M323.3,386.9c-0.5-4.7-3.9-8.6-7.5-11.7c-2.9-2.7-6.3-4.8-10-6c-3.8-1.1-8.1-0.9-11.3,1.4
	c-2.6,1.8-4.3,4.7-5.5,7.6c-1.7,3.4-2.5,7.2-2.4,11c0.3,3.8,2.1,7.6,5.4,9.5c1.2-1.7,3.2-2.6,5.2-3.4
	C305.6,392,314.4,389.2,323.3,386.9z"/>
<path class="st4" d="M292.9,385c0.3,0,0.5,0.3,0.7,0.6c0.8,1.3,1.5,2.6,2.1,4c-1.2,0.3-3.2,0.5-3.8-0.5
	C291.6,388.5,292,384.9,292.9,385z"/>
<path class="st4" d="M315.7,382.7c-0.2,0.2-0.5-0.2-0.5-0.6v-3.9c0-0.1,0-0.2,0.1-0.3c0.1-0.1,0.2-0.2,0.3-0.2
	c0.8-0.1,1.5,0.6,2,1.3c0.8,1.1,1.5,2.2,2,3.4l-4.2-0.1"/>
<path class="st2" d="M368.5,447c0.9-0.9,1.9-1.7,2.9-2.4c2.8-1.9,6.1-2.6,9.2-3.8s6.3-3.1,7.5-6.2c0.6-1.9,0.8-4,0.6-6
	c0-0.8-0.1-1.7-0.4-2.5c-0.4-0.7-0.9-1.3-1.6-1.7c-4.2-3.1-9.9-3.4-15.1-3c-11.6,0.7-22.9,3.5-33.4,8.3c-0.6,0.2-1,0.5-1.4,1
	c-0.2,0.4-0.3,0.9-0.3,1.4c-0.2,2.9,0.2,5.9,1.1,8.7c1.4,3.6,4.2,6.4,5.4,10.1c0.5,1.6,0.7,3.4,1.2,5c0.4,1.6,1.4,3.1,2.8,4.1
	c4,2.4,7.7-0.8,10.4-3.3L368.5,447z"/>
<path class="st3" d="M316.8,460.8l-5.1-11.1c-0.7-1.5-1.4-3.1-1.9-4.7c-0.6-1.9-0.9-3.9-1.4-5.9c-1.8-6.5-6.3-11.8-8.5-18.2
	c-0.1-0.6-0.4-1.1-0.8-1.5c-0.6-0.5-1.5-0.6-2.2-0.4c-3.1,0.5-5.5,2.9-8.3,4.2c-1.3,0.6-2.7,1-4,1.7c-1.3,0.6-2.3,1.8-2.7,3.2
	c-0.3,1.5,0.5,3,1.1,4.5c2.7,6.1,3.3,13,3.5,19.7c0.1,4.5-0.1,9.4-2.8,13c-5.1,7-1.9,17.3,0.1,25.8c0.2,1,0.5,2.1,0.7,3.1
	c0.2,1.3,0.2,2.7,0.2,4c0,4.5-0.3,9.1-2.1,13.2c1.9,1,3.9,1.6,6,1.7c5.8,0.7,11.6,1.3,17.5,1.6c1.8,0.2,3.7,0.1,5.5-0.3
	c4.4-1.2,7.5-5.2,7.4-9.8c0.3,2.8,0.9,5.8,2.9,7.7c2,1.9,4.9,2.2,7.7,2.4c7.7,0.4,15.4,0.2,23.1-0.7c0.5,0,1-0.1,1.4-0.3
	c1.5-0.7,1.6-2.8,1.4-4.4c-0.2-3.1-0.5-6.1-0.8-9.2c-0.3-1.9-0.5-3.9-0.5-5.9c0.2-2,0.5-4,1-6c1.3-6.2,2.4-12.6,2-19
	c-0.2-1.6-0.2-3.1-0.2-4.7c0.3-3.5,2.1-6.9,1.8-10.4c-1-10.3-1.8-20.9-4.7-30.9c-0.5-1.8-1.2-3.7-2.7-4.7c-2-1.3-4.8-0.6-7.1-1.5
	c-1.1-0.5-2.1-1.1-3-1.8c-2.1-1.3-4.4-2-6.9-2.1c-1.8-0.1-3.9,0.3-5,1.8c-0.5,0.8-0.9,1.8-1,2.7c-1.5,6.1-3.1,12.1-4.9,18.2
	l-1.6,5.8l-4.4,15.5C316.9,458.7,317.2,459.2,316.8,460.8z"/>
<polyline class="st5" points="342.4,400.3 439.1,501.9 439.1,510.5 396,510.5 323.3,415.6 "/>
<polyline class="st4" points="342.4,400.3 439.1,501.9 439.1,510.5 396,510.5 323.3,415.6 "/>
<polygon class="st4" points="324.8,414.3 325.1,414.4 396.6,501.9 439.1,501.9 439.1,510.5 396,510.5 323.3,415.6 "/>
<path class="st3" d="M335.9,416.5c-3.5,1.5-7.4,3.5-8.4,7.2c-0.7,1.9,0.3,3.9,2.2,4.6c0.4,0.2,0.9,0.2,1.4,0.2
	c1.6,0,3.3-0.3,4.8-0.9l20.6-6.8c0.6-0.2,1.2-0.5,1.3-1c0-0.3,0-0.7-0.2-1c-0.6-1.6-1.3-4.8-2.6-5.8c-1.1-0.9-3.3-0.6-4.6-0.5
	C345.3,412.4,340.5,414.5,335.9,416.5z"/>
<path class="st2" d="M354.3,421.5c3.5,0,6.9,0.5,10.3,1.6c3.3,1.1,6.3,3.1,8.5,5.8c0.6,0.8,1.1,1.7,1.3,2.6c0.2,1,3.5,1.6,2.7,2.3
	c2.2-0.4,1.7,0.7,3.9,0.7s4.6-0.6,6-2.4c0.9-1.5,1.3-3.2,1.2-4.9c0-1.2-0.2-2.4-0.7-3.5c-1-2.1-3.3-3.2-5.4-4.2l-17.9-8.2
	c-1-0.6-2.1-0.9-3.3-1.2c-1-0.1-1.9-0.1-2.9,0.1l-8.1,0.9c3.6,2.3,5.7,6.4,5.5,10.7"/>
<g class="st1">
	<path class="st2" d="M1105.5,766.6c-0.4,0.7-0.8,1.3-1.2,1.9c-4.1-2.9-8.2-5.7-12.4-8.5l0.3-0.5c1-1.9,2.4-3.5,4.2-4.6
		c2.9-2.2,7-1.7,9.3,1.2c1,1.3,1.4,2.8,1.3,4.4C1107,762.7,1106.5,764.8,1105.5,766.6z"/>
	
		<ellipse transform="matrix(0.4681 -0.8837 0.8837 0.4681 -77.4305 1376.2462)" class="st2" cx="1104.5" cy="752.4" rx="9.9" ry="7.6"/>
	
		<ellipse transform="matrix(0.4681 -0.8837 0.8837 0.4681 -64.9321 1375.5558)" class="st2" cx="1110.2" cy="741.7" rx="9.9" ry="7.6"/>
	
		<ellipse transform="matrix(0.4681 -0.8837 0.8837 0.4681 -52.4522 1374.8815)" class="st2" cx="1115.8" cy="731" rx="9.9" ry="7.6"/>
	
		<ellipse transform="matrix(0.4681 -0.8837 0.8837 0.4681 -39.9675 1374.1978)" class="st2" cx="1121.5" cy="720.3" rx="9.9" ry="7.6"/>
	<path class="st3" d="M1135.3,633.7c-0.3-1.7-0.5-3.3-0.6-5l19.2,6.4l-19.1-9.9c0.6-10,5.2-19.3,12.8-25.7l18.5,26.8l-14.4-29.8
		c17-10.6,39.4-5.5,50,11.5c10.6,17,5.5,39.4-11.5,50l0,0c-1.5,0.9-3,1.7-4.6,2.4c0.5,2.6,0.7,5.2,0.6,7.8l-29.1-0.2l28.7,4.7
		c-2,12.1-9.9,22.3-21.1,27.3c3.6,19.7-9.5,38.6-29.2,42.2s-38.6-9.5-42.2-29.2c-3-16.5,5.7-32.9,21-39.7
		C1111.3,656.8,1120,640.4,1135.3,633.7L1135.3,633.7z"/>
	<path class="st4" d="M1182,683.8c-3.8,7.2-9.9,12.9-17.3,16.2c3.6,19.7-9.5,38.6-29.2,42.2c-19.7,3.6-38.6-9.5-42.2-29.2
		c-3-16.5,5.7-32.9,21-39.6C1112.8,665.6,1184,680.2,1182,683.8z"/>
</g>
<g class="st1">
	<path class="st2" d="M937.8,720.5c0.3,1.4,0.8,2.8,1.4,4.1c9-3.4,18-6.7,27.2-9.9c-0.1-0.4-0.2-0.8-0.3-1.2
		c-0.9-4-2.9-7.6-5.7-10.6c-3.7-3.8-8.4-5.6-13-4.5s-7.9,4.9-9.5,10C936.9,712.4,936.8,716.5,937.8,720.5z"/>
	
		<ellipse transform="matrix(0.9715 -0.2372 0.2372 0.9715 -137.665 244.2958)" class="st2" cx="946.5" cy="694.3" rx="14.6" ry="19.1"/>
	
		<ellipse transform="matrix(0.9715 -0.2372 0.2372 0.9715 -132.4465 242.3353)" class="st2" cx="940.9" cy="671.6" rx="14.6" ry="19.1"/>
	
		<ellipse transform="matrix(0.9715 -0.2372 0.2372 0.9715 -127.227 240.377)" class="st2" cx="935.4" cy="649" rx="14.6" ry="19.1"/>
	
		<ellipse transform="matrix(0.9715 -0.2372 0.2372 0.9715 -122.0076 238.4188)" class="st2" cx="929.9" cy="626.3" rx="14.6" ry="19.1"/>
	<path class="st3" d="M945,458.2c1.3-2.9,2.5-6,3.4-9l-38.7,3l40.3-9.6c3.7-18.9-0.6-38.5-11.8-54.1L891,429.7l40.9-48.8
		c-26.7-27.8-71-28.7-98.8-2c-27.8,26.7-28.7,71-2,98.8c2.3,2.3,4.7,4.5,7.2,6.5c-2.1,4.6-3.7,9.4-4.7,14.3l54.5,13.3l-55.7-4.7
		c-2.1,23.5,7.9,46.5,26.5,61.1c-16,35.1-0.5,76.6,34.6,92.6s76.6,0.5,92.6-34.6c13.4-29.4,4.9-64-20.5-84
		C978.9,512.8,970.4,478.1,945,458.2z"/>
	<path class="st4" d="M834,529.8c3.7,15.2,12.4,28.8,24.8,38.4c-16,35.1-0.5,76.6,34.6,92.6s76.6,0.5,92.6-34.6
		c13.4-29.4,4.9-64-20.5-84C971.8,528.4,832.2,522.1,834,529.8z"/>
</g>
<linearGradient id="SVGID_1_" gradientUnits="userSpaceOnUse" x1="1288.7001" y1="922.391" x2="1288.7001" y2="490.6491" gradientTransform="matrix(1 0 0 1 -259.98 -131.95)">
	<stop  offset="0" style="stop-color:#808080;stop-opacity:0.25"/>
	<stop  offset="0.54" style="stop-color:#808080;stop-opacity:0.12"/>
	<stop  offset="1" style="stop-color:#808080;stop-opacity:0.1"/>
</linearGradient>
<path class="st10" d="M1137.4,456.6h-1.3v-70c-0.1-15.5-12.8-28.1-28.4-27.9c0,0,0,0,0,0H948.8c-15.5-0.1-28.3,12.4-28.4,27.9v29
	h-0.4c-0.9,0-1.7,0.7-1.7,1.6v14c0,0.9,0.8,1.6,1.7,1.6h0.4v14.3H920c-0.9,0-1.7,0.7-1.7,1.6c0,0,0,0,0,0l0,0v26.7
	c0,0.9,0.7,1.6,1.7,1.6h0.5v10.5H920c-0.9,0-1.7,0.7-1.7,1.6c0,0,0,0,0,0l0,0v27c0,0.9,0.8,1.6,1.7,1.6h0.5v244.6
	c0.1,15.5,12.8,28.1,28.4,27.9c0,0,0,0,0,0h158.9c15.5,0.1,28.3-12.4,28.4-27.9V509h1.3c0.9,0,1.7-0.7,1.7-1.6c0,0,0,0,0,0v-49.1
	C1139.1,457.4,1138.3,456.6,1137.4,456.6z"/>
<g class="st11">
	<path class="st12" d="M1131.3,458.3h3.6c0.7,0,1.3,0.6,1.3,1.3v49c0,0.7-0.6,1.3-1.3,1.3h-3.6c-0.7,0-1.3-0.6-1.3-1.3v-49
		C1130,458.9,1130.6,458.3,1131.3,458.3z"/>
	<path class="st12" d="M922.9,417.9h0.9c0.7,0,1.3,0.6,1.3,1.3v14.4c0,0.7-0.6,1.3-1.3,1.3h-0.9c-0.7,0-1.3-0.6-1.3-1.3v-14.4
		C921.6,418.4,922.2,417.9,922.9,417.9z"/>
	<path class="st12" d="M922.8,449h1.3c0.7,0,1.3,0.6,1.3,1.3v27c0,0.7-0.6,1.3-1.3,1.3h-1.3c-0.7,0-1.3-0.6-1.3-1.3v-27
		C921.5,449.6,922,449,922.8,449z"/>
	<path class="st12" d="M922.8,489h1.1c0.7,0,1.3,0.6,1.3,1.3v27.2c0,0.7-0.6,1.3-1.3,1.3h-1.1c-0.7,0-1.3-0.6-1.3-1.3v-27.2
		C921.5,489.6,922.1,489,922.8,489z"/>
	<path class="st13" d="M946.3,361.6h164.4c12.5,0,22.7,10.2,22.7,22.7v381c0,12.5-10.2,22.7-22.7,22.7H946.3
		c-12.5,0-22.7-10.2-22.7-22.7v-381C923.6,371.8,933.7,361.6,946.3,361.6z"/>
	<path class="st12" d="M1010.5,374.4h24.8c1.2,0,2.3,1,2.3,2.3v1.5c0,1.2-1,2.3-2.3,2.3h-24.8c-1.2,0-2.3-1-2.3-2.3v-1.5
		C1008.2,375.4,1009.2,374.4,1010.5,374.4z"/>
	<circle class="st12" cx="1045.3" cy="377.3" r="3.4"/>
</g>
<path class="st14" d="M1103.8,372.7h-24v2.9c0,7.6-6.1,13.7-13.7,13.7c0,0,0,0,0,0h-76.6c-7.6,0-13.7-6.1-13.7-13.7v-2.9h-22.5
	c-9.2,0-16.7,7.4-16.7,16.6c0,0,0,0,0,0l0,0v370.9c0,9.2,7.4,16.7,16.6,16.7c0,0,0,0,0,0h150.6c9.2,0,16.7-7.5,16.7-16.7l0,0l0,0
	V389.4C1120.4,380.2,1113,372.7,1103.8,372.7L1103.8,372.7z"/>
<ellipse class="st3" cx="862.3" cy="797.2" rx="33.3" ry="5.6"/>
<path class="st3" d="M876.1,788c1.5-1.2,2.6-2.9,3.2-4.8c0.4-1.9-0.4-4.2-2.2-4.9c-2-0.8-4.2,0.6-5.9,2s-3.5,3.1-5.7,2.8
	c2.3-2.1,3.3-5.1,2.7-8.1c-0.1-0.6-0.3-1.2-0.8-1.7c-1.1-1.2-3.2-0.7-4.5,0.3c-4.3,3-5.5,8.9-5.5,14.1c-0.4-1.9-0.1-3.9-0.1-5.8
	s-0.5-4.1-2.2-5.2c-1-0.5-2.2-0.8-3.3-0.8c-1.9-0.1-4.1,0.1-5.4,1.5c-1.6,1.8-1.2,4.7,0.2,6.7s3.6,3.2,5.6,4.5c1.6,1,3,2.3,4,3.8
	c0.1,0.2,0.2,0.4,0.3,0.7h12.1C871.3,791.8,873.8,790,876.1,788z"/>
<g class="st15">
	<ellipse class="st3" cx="1172.4" cy="766.2" rx="19" ry="3.2"/>
	<path class="st3" d="M1180.2,761c0.9-0.7,1.5-1.7,1.8-2.7c0.3-1.1-0.2-2.3-1.3-2.8c-1.2-0.4-2.4,0.4-3.3,1.2s-2,1.8-3.3,1.6
		c1.3-1.2,1.9-2.9,1.5-4.7c-0.1-0.3-0.2-0.7-0.4-0.9c-0.7-0.7-1.8-0.4-2.6,0.2c-2.5,1.7-3.2,5.1-3.2,8.1c-0.1-1.1-0.1-2.2,0-3.3
		c0.1-1.1-0.4-2.3-1.3-3c-0.6-0.3-1.2-0.5-1.9-0.4c-1.1-0.2-2.2,0.2-3.1,0.9c-0.8,1.1-0.8,2.7,0.1,3.8c0.9,1,2,1.9,3.2,2.6
		c0.9,0.5,1.7,1.3,2.3,2.2c0.1,0.1,0.1,0.3,0.2,0.4h6.9C1177.5,763.1,1178.9,762.1,1180.2,761z"/>
</g>
<g class="st15">
	<ellipse class="st3" cx="881.5" cy="730.1" rx="19" ry="3.2"/>
	<path class="st3" d="M889.3,724.9c0.9-0.7,1.5-1.7,1.8-2.7c0.3-1.1-0.2-2.3-1.3-2.8c-1.2-0.4-2.4,0.4-3.3,1.2s-2,1.7-3.3,1.6
		c1.3-1.2,1.9-2.9,1.5-4.7c-0.1-0.3-0.2-0.7-0.4-0.9c-0.6-0.7-1.8-0.4-2.6,0.2c-2.5,1.8-3.1,5.1-3.2,8.1c-0.1-1.1-0.2-2.2,0-3.3
		c0.1-1.1-0.4-2.2-1.2-2.9c-0.6-0.3-1.2-0.5-1.9-0.4c-1.1-0.2-2.2,0.2-3.1,0.9c-0.8,1.1-0.8,2.7,0.1,3.8c0.9,1,2,1.9,3.2,2.6
		c0.9,0.5,1.7,1.3,2.3,2.2c0.1,0.1,0.1,0.3,0.2,0.4h6.9C886.6,727,888,726.1,889.3,724.9z"/>
</g>
<rect x="1002.3" y="425.5" class="st16" width="102.6" height="5.7"/>
<rect x="950.9" y="458" class="st16" width="29.7" height="29.7"/>
<rect x="1002.5" y="479" class="st16" width="102.6" height="5.7"/>
<rect x="951.1" y="512.5" class="st16" width="29.7" height="29.7"/>
<rect x="1002.8" y="514.6" class="st16" width="62.3" height="5.7"/>
<rect x="1002.8" y="524.5" class="st16" width="102.6" height="5.7"/>
<rect x="1002.8" y="534.5" class="st16" width="102.6" height="5.7"/>
<rect x="1003" y="589" class="st16" width="102.6" height="5.7"/>
<rect x="1003.2" y="623.7" class="st16" width="62.3" height="5.7"/>
<rect x="1003.2" y="633.6" class="st16" width="102.6" height="5.7"/>
<rect x="1003.2" y="643.5" class="st16" width="102.6" height="5.7"/>
<rect x="1003.4" y="678.2" class="st16" width="62.3" height="5.7"/>
<rect x="1003.4" y="688.1" class="st16" width="102.6" height="5.7"/>
<rect x="1003.4" y="698" class="st16" width="102.6" height="5.7"/>
<rect x="1003.7" y="732.7" class="st16" width="62.3" height="5.7"/>
<rect x="1003.7" y="742.6" class="st16" width="102.6" height="5.7"/>
<rect x="1003.7" y="752.5" class="st16" width="102.6" height="5.7"/>
<linearGradient id="SVGID_2_" gradientUnits="userSpaceOnUse" x1="1028.4501" y1="622.15" x2="1028.4501" y2="559.16" gradientTransform="matrix(1 0 0 1 2.000000e-02 -66)">
	<stop  offset="0" style="stop-color:#808080;stop-opacity:0.25"/>
	<stop  offset="0.54" style="stop-color:#808080;stop-opacity:0.12"/>
	<stop  offset="1" style="stop-color:#808080;stop-opacity:0.1"/>
</linearGradient>
<rect x="901.8" y="493.2" class="st17" width="253.4" height="63"/>
<rect x="903.2" y="494.6" class="st13" width="251.3" height="60.2"/>
<rect x="951.7" y="509.8" class="st3" width="29.7" height="29.7"/>
<rect x="1003.3" y="531.8" class="st3" width="102.6" height="5.7"/>
<linearGradient id="SVGID_3_" gradientUnits="userSpaceOnUse" x1="1162.9404" y1="806.8658" x2="1254.0105" y2="806.8658" gradientTransform="matrix(1 0 0 1 -259.98 -131.95)">
	<stop  offset="0" style="stop-color:#808080;stop-opacity:0.25"/>
	<stop  offset="0.54" style="stop-color:#808080;stop-opacity:0.12"/>
	<stop  offset="1" style="stop-color:#808080;stop-opacity:0.1"/>
</linearGradient>
<path class="st18" d="M992,548.2c-1.6-1.6-4.1-2-6.1-0.9c-1.5,0.9-2.3,2.5-3,4.1c-1.1,2.3-2.7,4.5-3.2,7c-1.3,6.9-6.9,12.3-9.1,19
	c-0.8,2.4-1.2,5-2.4,7.1c-0.6,1-1.3,1.9-2,2.7c-2.9,3.6-5.4,7.5-7.6,11.5c-1.3,0.2-2.4,1.3-3.5,2.1c-1.4,1.1-3,1.8-4.7,2.2
	c-0.7,0.1-1.3,0.3-1.9,0.7c-0.8,0.7-0.9,1.9-1.6,2.7c-0.5,0.5-1.1,0.9-1.7,1.2c0-0.2,0-0.4,0-0.6c0-1.1,0-2.2,0-3.2
	c3.9-4.6,3.9-11.3,0-15.8c0-1.7,0.3-3.4,0.7-5c0.3-0.8,0.1-1.7-0.5-2.3c-0.3-0.3-0.7-0.3-1.1-0.6c-0.5-0.4-0.9-0.9-1.2-1.5
	c-1.8-2.5-5.1-3.4-7.9-2c-2.1,1.1-3.4,3.3-5.2,4.8c-1,0.8-2.1,1.3-3,2.1c-1.9,1.7-3.3,3.9-3.9,6.3c-0.6,2.4-1,4.9-1.1,7.5
	c-0.1,0.8-0.1,1.5,0.1,2.3c0.2,0.6,0.5,1.2,0.8,1.8c1.8,2.9,4.3,5.3,7.2,6.9c0,0.1,0,0.3,0,0.5c0,0.2-0.1,0.5-0.1,0.7l-0.3-0.1
	c-1.3-0.3-2.6-0.2-3.7-0.9c-1.9-1.1-2.5-3.7-4.3-4.9c-0.2-0.1-0.3-0.2-0.5-0.3c-0.1-3.3-0.8-6.6-1.9-9.7c-0.7-1.4-1.1-3-1.1-4.6
	c0.2-1.5,0.7-2.9,1.4-4.2c2.1-4.6,3.8-9.4,5.2-14.3c1-3.1,1.9-6.1,2.9-9.2c0.9-0.7,1.8-1.5,2.5-2.4c1.6-1.8,2.6-4,3-6.4
	c0.4-2.4-0.2-4.8-1.6-6.7c-0.6-0.9-1.6-1.5-2.7-1.7c-1,0-1.9,0.4-2.5,1.2c-1,1.1-1.7,2.4-2.2,3.8c-1,2.3-1.9,4.6-1.8,7
	c0.1,2,0.8,4.3-0.3,5.9c-3.9,5.4-6.8,11.6-9.9,17.5c-0.8,1.4-1.4,2.9-2,4.4c-0.7,2.5-1.1,5-1,7.6c0.1,4.8,0.5,9.6,1.3,14.3
	c0.2,2.2,0.8,4.3,1.7,6.3c-0.7,2.3-1,4.7-1,7.1c0,0.6,0.1,1.1,0.3,1.6c0.3,0.6,0.8,1.2,1.3,1.6c1.4,1.6,2,3.7,1.7,5.7
	c-0.2,1.9,0,3.9,0.5,5.7c1.2,5.2,2.3,10.3,3.3,15.5c0.2,1,0.3,2,0.2,3c-0.2,1.4-1,2.8-0.8,4.2c0.2,0.7,0.3,1.3,0.4,2
	c0,0.5-0.2,1-0.3,1.5c-1.3,3.9-4.9,12.7-4.8,16.8l0.9-0.2c-0.9,5.3-3.1,10.4-4.3,15.7c-0.8,3.9-1.3,7.8-1.2,11.7
	c0.1,1.8,0,3.5-0.1,5.3c-0.2,1.6-0.6,3.1-0.8,4.7c-0.2,2.1-0.3,4.2-0.3,6.3c-0.1,3.3,0.1,6.6,0.6,9.9c0.9,5.6-0.7,11.1-1.1,16.8
	c-0.2,3.9-0.7,7.9-1.3,11.8c-0.3,1.6-0.7,3.3-0.9,4.9c-0.7,4.9,0.3,10-0.7,14.8c-0.5,2.3-1.3,4.8-0.1,6.8c0.4,0.6,1,1.1,1.4,1.7
	c0.5,0.6,0.6,1.4,0.4,2.1c-0.3,0.5-0.8,0.9-1,1.5c-0.2,0.9,0.7,1.6,1.5,2l0.2,0.1c-0.1,0.6,0.1,1.3,0.5,1.7c0.5,0.5,1.1,0.8,1.8,0.9
	l11,3.3c2.5,0.8,5.1,1.5,7.6,0.9c0.1,0.3,0.2,0.7,0.4,0.9c0.5,0.5,1.1,0.8,1.8,0.9l10.9,3.3c2.8,0.8,5.9,1.7,8.6,0.5
	c0.8-0.3,1.5-0.8,2-1.5c0.9-1.3,1.1-2.9,0.7-4.3c-0.1-0.7-0.5-1.4-1.1-1.9c-0.7-0.5-1.6-0.8-2.5-0.8c-0.8,0-1.5-0.2-2.2-0.6
	c-0.2-0.1-0.4-0.3-0.5-0.5c0.6-0.6,1.2-1.3,1.8-1.9c-0.5-0.2-0.6-0.8-0.7-1.3c-0.7-7.4,2.1-14.7,3.2-22c0.5-3.7,0.6-7.4,0.3-11.2
	c-0.1-1.4-0.3-2.8-0.4-4.2c-0.3-7.3,3.2-14.4,3.1-21.7c-0.1-3.4,1.7-6.8,2.6-10.1c0.6-3,0.9-6,0.8-9.1l0.1-24c0-3.2,0-6.6-1-9.6
	c-0.5-1.7-0.7-3.5-0.4-5.3c3-1.3,5.8-3.2,8.9-2.9c0.8-2.2-0.2-9.7-1-12c-3.1-8.9-3.7-18.5-1.8-27.7c0.7-3.3-0.3-6.8,0.5-10.1
	c0.1-0.8,0.4-1.5,0.9-2.2c0.5-0.7,1.2-1,2-1c0-2,0-4.1-0.2-6.1c1.3-1,2.4-2.3,3.2-3.7c1.8-2.9,2.7-6.2,4-9.3
	c2.1-5.6,5-10.8,7.5-16.3s2.7-11.4,4.7-17.1c1.1-3.1,3.3-5.7,6.3-7.2c1.2-0.5,2.3-1.1,3.3-2c0.6-0.8,1-1.8,1.1-2.8
	C994.4,552.1,993.6,549.8,992,548.2z M924,788.6c0.2-0.3,0.5-0.5,0.7-0.8c-0.7-0.1-1.6-0.7-1.7-1.4c0.1-0.7,0.2-1.5,0.5-2.2
	c0.3-1.3,0.4-2.6,0.2-3.9c-0.2-0.9-0.5-1.7-0.7-2.7c-0.2-1-0.3-2-0.3-3c-0.3-3.6-1-7.2-2.1-10.7c-1.1-3.4,0.4-6.8,0.8-10.3
	c0-1.7,0.3-3.3,0.7-4.9c0.3-0.9,0.9-1.8,1.3-2.7c0.8-2.2,0.3-4.6-0.2-6.8c3.4-6.2,4.6-13.7,5.9-20.7l2.2-11.8c0.2-1.8,0.8-3.5,1.7-5
	c1.1,5.2,1.6,10.6,1.3,15.9c-0.1,1.5-0.1,3.1,0.1,4.7c0.3,1.7,1,3.3,1.4,5c0.9,3.7,0.4,7.5,0.6,11.3c0.1,1.5,0.3,3,0.3,4.6
	c0.3,6.8-2,13.3-4.2,19.7c-1.4,3.9-1.7,8.3-2.3,12.4c-0.6,3.9-1.2,7.8-1.5,11.8c-0.1,1.2-0.2,2.5-0.3,3.7c-0.4-0.1-0.8-0.1-1.1-0.2
	c-0.8,0-1.5-0.2-2.2-0.6C924.5,789.6,924.2,789.1,924,788.6L924,788.6z"/>
<path class="st2" d="M947.8,796.5c0.9,0,1.8,0.3,2.5,0.8c0.6,0.5,0.9,1.2,1.1,1.9c0.4,1.5,0.2,3.1-0.7,4.3c-0.5,0.7-1.2,1.2-2,1.5
	c-2.7,1.2-5.8,0.3-8.6-0.5l-11-3.3c-0.7-0.1-1.3-0.5-1.8-0.9c-0.6-0.8-0.6-2,0-2.8c0.6-0.8,1.4-1.5,2.3-1.9c3.4-1.7,7.3-2,11-2.1
	c1.4,0,2.8-0.3,3.7,0.8c0.5,0.6,0.4,1.2,1.2,1.7C946.3,796.3,947.1,796.5,947.8,796.5z"/>
<path class="st2" d="M927.1,790.5c0.9,0,1.8,0.3,2.5,0.8c0.5,0.5,0.9,1.2,1.1,1.9c0.4,1.5,0.2,3.1-0.7,4.3c-0.5,0.7-1.2,1.2-2,1.5
	c-2.7,1.2-5.8,0.3-8.6-0.5l-11-3.3c-0.7-0.1-1.3-0.5-1.8-0.9c-0.6-0.8-0.6-2,0-2.8c0.6-0.8,1.4-1.5,2.3-1.9c3.4-1.7,7.3-2,11-2.1
	c1.4,0,2.8-0.3,3.7,0.8c0.5,0.6,0.4,1.2,1.2,1.7C925.5,790.3,926.3,790.5,927.1,790.5z"/>
<path class="st19" d="M921.3,607.1c0.1-4.1-0.5-8.2-1.9-12.1c-0.7-1.4-1.1-3-1.1-4.6c0.2-1.5,0.7-2.9,1.4-4.1
	c2.1-4.6,3.9-9.4,5.3-14.3l2.9-9.1c1-0.7,1.8-1.5,2.6-2.4c1.6-1.8,2.6-4,3-6.3c0.4-2.4-0.2-4.8-1.6-6.7c-0.6-0.9-1.6-1.5-2.7-1.7
	c-1,0-1.9,0.4-2.5,1.2c-1,1.1-1.7,2.4-2.2,3.7c-1,2.2-1.9,4.6-1.8,7c0.1,2,0.8,4.3-0.3,5.9c-3.9,5.4-6.8,11.5-9.9,17.4
	c-0.8,1.4-1.4,2.9-2,4.4c-0.7,2.4-1.1,5-1,7.5c0.1,4.8,0.5,9.5,1.3,14.3c0.4,3,1,6.2,3.2,8.2C916,612.3,918.5,609.5,921.3,607.1z"/>
<circle class="st19" cx="936.1" cy="597.3" r="12.1"/>
<path class="st19" d="M930.3,610c-0.5,2.2-1.3,4.2-2.6,6c-0.7,1.2-1.6,2.4-2.9,2.5c3.5,1.8,7.2,3.3,11,4.4c1.3,0.4,2.6,0.7,4,0.7
	c1.2-0.1,2.3-0.4,3.3-0.9c4.7-2,8.1-6.1,9.4-11c-1.5,0-3-0.1-4.5-0.3c-0.8-0.1-1.6-0.4-2.2-1.1c-0.3-0.6-0.5-1.3-0.5-2
	c-0.1-2-0.1-4,0-6c-3-0.2-5.9,0.2-8.8,1.1c-1.2,0.4-2.3,0.8-3.5,1.1c-0.7,0.2-2.8,0-3.3,0.4C928.9,605.5,930.5,608.5,930.3,610z"/>
<path class="st20" d="M946,584.4c0.3-0.8,0.1-1.7-0.5-2.3c-0.3-0.3-0.7-0.3-1.1-0.6c-0.5-0.4-0.9-0.9-1.2-1.5
	c-1.8-2.5-5.1-3.4-7.9-2c-2.1,1.1-3.4,3.3-5.2,4.8c-1,0.8-2,1.3-3,2.1c-1.9,1.7-3.3,3.8-3.9,6.3c-0.6,2.4-0.9,4.9-1,7.4
	c-0.1,0.8-0.1,1.5,0.1,2.3c0.2,0.6,0.5,1.2,0.8,1.7c1.9,3,4.5,5.4,7.6,7c3.2,1.6,6.9,1.7,10.2,0.2c0.3-0.1,0.6-0.3,0.8-0.6
	c0.2-0.4,0.2-0.9,0.1-1.3c-0.2-1.8,0.2-3.6,1-5.2c0.6-1.2,1.5-2.2,1.9-3.4c0.4-1.4,0.6-2.8,0.5-4.2C945.3,591.6,945,588,946,584.4z"
	/>
<rect x="951.5" y="510.2" class="st3" width="29.7" height="29.7"/>
<path class="st19" d="M970.4,535.5c-0.4,0.8-1.1,1.5-2,1.8c-0.5,0.2-1.1,0.3-1.6,0.3c-0.6,0-1.2,0-1.7-0.2c-0.7-0.3-1.4-0.8-1.8-1.5
	c-0.4-0.7-0.8-1.4-1.1-2.1c-0.2-0.4-0.2-0.8-0.2-1.2c0.5-0.1,0.9-0.3,1.2-0.7c0.2-0.4,0.2-0.8,0-1.2c0-0.1-0.1-0.2-0.1-0.3
	c-0.1-0.3-0.4-0.7-0.2-1s0.7-0.2,0.9-0.3c0.6-0.3,1.2-0.6,1.8-0.8c0.6-0.1,1.2,0,1.7,0.1c0.1,0,0.1,0,0.2,0.1
	c0.1,0.1,0.1,0.1,0.2,0.2c0.2,0.4,0.3,0.8,0.4,1.2c0.1,0.4,0.3,0.8,0.6,1.1c0.3,0.2,0.6,0.4,0.9,0.5l0.8,0.4
	c0.1,0.1,0.3,0.1,0.4,0.2c0.1,0.1,0.2,0.3,0.2,0.5C971,533.7,970.9,534.6,970.4,535.5z"/>
<path class="st21" d="M960.2,646.9h-4.5c0.2-1.2,0.6-2.4,1.1-3.5c0-0.1,0.1-0.2,0.2-0.3h0.1c0.1-0.1,0.3-0.1,0.5-0.2
	s0.2-0.2,0.3-0.3c0.5,0,1,0.1,1.5,0.3c0.1,0,0.3,0,0.4,0.1c0.3,0.2,0.5,0.4,0.6,0.8C960.5,644.7,960.5,645.9,960.2,646.9z"/>
<path class="st4" d="M968,530c-1.3,1.3-3.3,1.6-4.9,0.7c0-0.1-0.1-0.2-0.1-0.3c-0.1-0.3-0.4-0.7-0.2-1s0.7-0.2,0.9-0.3
	c0.6-0.3,1.2-0.6,1.8-0.8c0.6-0.1,1.2,0,1.7,0.1c0.1,0,0.2,0,0.2,0.1c0.1,0.1,0.1,0.1,0.2,0.2C967.8,529.2,967.9,529.6,968,530z"/>
<circle class="st19" cx="965.1" cy="527.1" r="4"/>
<path class="st22" d="M977.4,539.9h-19c-0.6-1.3-1.1-2.6-1.7-3.9l0,0c0.1-0.3,0.2-0.6,0.3-0.9c0.2-0.3,0.5-0.4,0.8-0.4
	c0.2,0,0.4,0.1,0.5-0.1s0.1-0.2,0.2-0.3c0.1-0.1,0.3-0.1,0.5-0.1c0.4,0,0.7-0.2,0.9-0.5c0.1-0.1,0.1-0.2,0.2-0.3
	c0.1-0.1,0.3-0.1,0.5-0.1c0.5-0.1,0.8-0.6,1.1-0.9c0.2-0.2,0.4-0.3,0.7-0.2c0.1,0,0.1,0.1,0.1,0.1c0.1,0.1,0.2,0.3,0.2,0.5
	c0.2,1,0.7,1.8,1.5,2.5c1.5,1.1,3.7,0.8,4.8-0.7c0.1-0.2,0.3-0.4,0.4-0.6c0.3-0.7,0.4-1.5,0.5-2.2v-0.1c0.5-0.1,1,0,1.4,0.3
	c0.4,0.3,0.8,0.6,1.2,0.8c0.5,0.2,1.2,0.2,1.5,0.6c0.2,0.2,0.3,0.4,0.5,0.5c0.1,0,0.2,0.1,0.4,0.1c0.7,0.2,1.2,0.7,1.5,1.3
	c0.4,0.9,0.7,1.9,0.8,3L977.4,539.9z"/>
<path class="st2" d="M962.3,520.5c-0.3,0.2-0.5,0.5-0.7,0.8c-0.3,0.6-0.8,1-1.4,1.4c-0.2,0.1-0.5,0.2-0.7,0.4
	c-0.1,0.1-0.2,0.3-0.2,0.5c-0.1,0.6-0.2,1.1-0.2,1.7c0,0.3,0,0.6,0.1,0.8c0.2,0.2,0.3,0.5,0.4,0.7c0,0.2,0,0.4-0.1,0.6
	c-0.1,0.2,0,0.5,0.2,0.6c0.1,0,0.2,0.1,0.3,0.1c0.6,0.1,0.8,0.8,0.9,1.4c0.2,0,0.3-0.2,0.3-0.4l0.6-2.7c0.1-0.3,0.2-0.6,0.5-0.7
	c0.2,0,0.4,0,0.6,0c0.8,0.1,1.5-0.5,2.3-0.7c0.3,0,0.5,0,0.8,0c0.6,0,1.3,0.3,1.5,0.9c0,0.1,0,0.2,0.1,0.3c0.1,0,0.2,0,0.3,0
	c0.4,0,0.6,0.4,0.7,0.8l0.4,1.3c0.1,0.2,0.2,0.4,0.4,0.5c0.2,0,0.4-0.1,0.4-0.3c0-0.2,0-0.4-0.1-0.6c-0.1-0.9,0-1.8,0.3-2.6
	c0.3-0.9,0.1-1.8-0.4-2.5c-0.2-0.2-0.5-0.4-0.7-0.7s-0.3-0.5-0.5-0.8c-0.8-0.7-1.8-1.1-2.8-1.2C964.5,519.7,963.3,520,962.3,520.5z"
	/>
<g class="st23">
	<rect x="952" y="567.3" class="st16" width="29.7" height="29.7"/>
	<path class="st21" d="M970.9,589.8c-0.4,0.8-1.1,1.5-2,1.8c-0.5,0.2-1.1,0.3-1.6,0.3c-0.6,0-1.2,0-1.7-0.2
		c-0.7-0.3-1.4-0.8-1.8-1.5c-0.4-0.7-0.8-1.4-1.1-2.1c-0.2-0.4-0.2-0.8-0.2-1.2c0.5-0.1,0.9-0.3,1.2-0.7c0.2-0.4,0.2-0.8,0-1.2
		c0-0.1-0.1-0.2-0.1-0.3c-0.1-0.3-0.4-0.7-0.2-1c0.2-0.3,0.7-0.2,0.9-0.3c0.6-0.3,1.2-0.6,1.8-0.8c0.6-0.1,1.2,0,1.7,0.1
		c0.1,0,0.1,0,0.2,0.1c0.1,0.1,0.1,0.1,0.2,0.2c0.2,0.4,0.3,0.8,0.4,1.2c0.1,0.4,0.3,0.8,0.6,1.1c0.3,0.2,0.6,0.4,0.9,0.5l0.8,0.4
		c0.1,0.1,0.3,0.1,0.4,0.2c0.1,0.1,0.2,0.3,0.2,0.5C971.4,587.9,971.3,588.9,970.9,589.8z"/>
	<circle class="st24" cx="965.5" cy="581.4" r="4"/>
	<path class="st2" d="M962.7,574.8c-0.3,0.2-0.5,0.5-0.7,0.8c-0.3,0.6-0.8,1-1.4,1.4c-0.2,0.1-0.5,0.2-0.7,0.4
		c-0.1,0.1-0.2,0.3-0.2,0.5c-0.1,0.6-0.2,1.1-0.2,1.7c0,0.3,0,0.6,0.1,0.8c0.2,0.2,0.3,0.5,0.4,0.7c0,0.2,0,0.4-0.1,0.6
		c-0.1,0.2,0,0.5,0.2,0.6c0.1,0,0.2,0.1,0.3,0.1c0.6,0.1,0.8,0.8,0.9,1.4c0.2,0,0.3-0.2,0.3-0.4l0.6-2.7c0.1-0.3,0.2-0.6,0.5-0.7
		c0.2,0,0.4,0,0.6,0c0.8,0.1,1.5-0.5,2.3-0.7c0.3,0,0.5,0,0.8,0c0.6,0,1.3,0.3,1.5,0.9c0,0.1,0,0.2,0.1,0.3c0.1,0,0.2,0,0.3,0
		c0.4,0,0.6,0.4,0.7,0.8l0.4,1.3c0.1,0.2,0.2,0.4,0.4,0.5c0.2,0,0.4-0.1,0.4-0.3c0-0.2,0-0.4-0.1-0.6c-0.1-0.9,0-1.8,0.3-2.6
		c0.3-0.9,0.1-1.8-0.4-2.5c-0.2-0.2-0.5-0.4-0.7-0.7s-0.3-0.5-0.5-0.8c-0.8-0.7-1.8-1.1-2.8-1.2C964.9,574,963.8,574.2,962.7,574.8z
		"/>
	<path class="st21" d="M977.8,594.2h-19c-0.6-1.3-1.1-2.6-1.7-3.9l0,0c0.1-0.3,0.2-0.6,0.3-0.9c0.2-0.3,0.5-0.4,0.8-0.4
		c0.2,0,0.4,0.1,0.5-0.1s0.1-0.2,0.2-0.3c0.1-0.1,0.3-0.1,0.5-0.1c0.4,0,0.7-0.2,0.9-0.5c0.1-0.1,0.1-0.2,0.2-0.3
		c0.1-0.1,0.3-0.1,0.5-0.1c0.5-0.1,0.8-0.6,1.1-0.9c0.2-0.2,0.4-0.3,0.7-0.2c0.1,0,0.1,0.1,0.1,0.1c0.1,0.1,0.2,0.3,0.2,0.5
		c0.2,1,0.7,1.8,1.5,2.5c1.5,1.1,3.7,0.8,4.8-0.7c0.1-0.2,0.3-0.4,0.4-0.6c0.3-0.7,0.4-1.5,0.5-2.2V586c0.5-0.1,1,0,1.4,0.3
		c0.4,0.3,0.8,0.6,1.2,0.8c0.5,0.2,1.2,0.2,1.5,0.6c0.2,0.2,0.3,0.4,0.5,0.5c0.1,0,0.2,0.1,0.4,0.1c0.7,0.2,1.2,0.7,1.5,1.3
		c0.4,0.9,0.7,1.9,0.8,3L977.8,594.2z"/>
	<path class="st21" d="M960.3,594.2h-4.5c0.2-1.2,0.6-2.4,1.1-3.5c0-0.1,0.1-0.2,0.2-0.3h0.1c0.1-0.1,0.3-0.1,0.5-0.2
		s0.2-0.2,0.3-0.3c0.5,0,1,0.1,1.5,0.3c0.1,0,0.3,0,0.4,0.1c0.3,0.2,0.5,0.4,0.6,0.8C960.6,592,960.6,593.1,960.3,594.2z"/>
</g>
<g class="st25">
	<path d="M969.5,527.9c-0.2,0-0.3-0.3-0.4-0.5l-0.4-1.3c-0.1-0.4-0.3-0.8-0.7-0.8c-0.1,0-0.2,0-0.3,0c-0.1,0-0.1-0.2-0.1-0.3
		c-0.1-0.6-0.9-0.8-1.5-0.9c-0.3,0-0.5,0-0.8,0c-0.8,0.2-1.5,0.8-2.3,0.7c-0.2,0-0.4,0-0.6,0c-0.3,0.1-0.4,0.5-0.5,0.7
		c-0.2,0.9-0.4,1.8-0.6,2.7c0,0.2-0.1,0.4-0.3,0.4c-0.1-0.6-0.3-1.3-0.9-1.4c-0.1,0-0.2,0-0.3-0.1c-0.1,0-0.1-0.1-0.2-0.2
		c0,0.1,0,0.2,0,0.3c-0.1,0.2,0,0.5,0.2,0.6c0.1,0,0.2,0.1,0.3,0.1c0.6,0.1,0.8,0.8,0.9,1.4c0.2,0,0.3-0.2,0.3-0.4
		c0.2-0.9,0.4-1.8,0.6-2.7c0.1-0.3,0.2-0.6,0.5-0.7c0.2,0,0.4,0,0.6,0c0.8,0.1,1.5-0.5,2.3-0.7c0.3-0.1,0.5-0.1,0.8,0
		c0.6,0,1.3,0.3,1.5,0.9c0,0.1,0,0.2,0.1,0.3c0.1,0,0.2,0,0.3,0c0.4,0,0.6,0.4,0.7,0.8l0.4,1.3c0.1,0.2,0.2,0.4,0.4,0.5
		c0.2,0,0.4-0.1,0.4-0.3c0-0.2,0-0.3-0.1-0.5C969.8,527.8,969.7,527.9,969.5,527.9z"/>
	<path d="M959.7,526.2c-0.1-0.3-0.2-0.5-0.4-0.7c-0.1-0.2-0.1-0.3-0.1-0.5v0.3c0,0.3,0,0.6,0.1,0.8c0.1,0.2,0.3,0.4,0.3,0.6
		C959.7,526.6,959.7,526.4,959.7,526.2z"/>
	<path d="M970.1,524.4c-0.2,0.8-0.3,1.5-0.3,2.3c0.1-0.6,0.2-1.1,0.3-1.7c0.1-0.4,0.1-0.9,0.1-1.3
		C970.2,523.9,970.2,524.1,970.1,524.4z"/>
</g>
<path class="st22" d="M959.9,539.9h-4.5c0.2-1.2,0.6-2.4,1.1-3.5c0-0.1,0.1-0.2,0.2-0.3h0.1c0.1-0.1,0.3-0.1,0.5-0.2
	s0.2-0.2,0.3-0.3c0.5,0,1,0.1,1.5,0.3c0.1,0,0.3,0,0.4,0.1c0.3,0.2,0.5,0.4,0.6,0.8C960.1,537.7,960.1,538.8,959.9,539.9z"/>
<path class="st19" d="M957.4,602.7c2.5-5,5.4-9.7,8.9-14.1c0.7-0.8,1.4-1.7,2-2.7c1.3-2.2,1.6-4.7,2.4-7.1c2.2-6.7,7.7-12,9.1-18.9
	c0.5-2.5,2.1-4.7,3.2-7c0.7-1.6,1.6-3.2,3-4.1c2-1.1,4.5-0.7,6.1,0.9c1.5,1.6,2.2,3.9,1.9,6.1c-0.1,1-0.5,2-1.1,2.8
	c-0.9,0.9-2,1.5-3.2,2c-2.9,1.5-5.2,4.1-6.3,7.2c-1.9,5.6-2.2,11.6-4.7,17s-5.4,10.6-7.5,16.2c-1.2,3.2-2.2,6.4-3.9,9.3
	s-4.5,5.3-7.9,5.8c0-2.1-0.3-4.2-1-6.2C957.6,607.6,956.3,604.9,957.4,602.7z"/>
<text transform="matrix(1 0 0 1 1002.53 418.4041)" class="st26 st27 st28">Architects</text>
<text transform="matrix(1 0 0 1 1002.7598 470.4892)" class="st26 st27 st28">Interior Designers</text>
<text transform="matrix(1 0 0 1 1003.21 578.4546)" class="st26 st27 st28">Project Managers</text>
<g class="st23">
	<rect x="952.6" y="619.8" class="st16" width="29.7" height="29.7"/>
	<path class="st21" d="M971.4,642.3c-0.4,0.8-1.1,1.5-2,1.8c-0.5,0.2-1.1,0.3-1.6,0.3c-0.6,0-1.2,0-1.7-0.2
		c-0.7-0.3-1.4-0.8-1.8-1.5c-0.4-0.7-0.8-1.4-1.1-2.1c-0.2-0.4-0.2-0.8-0.2-1.2c0.5-0.1,0.9-0.3,1.2-0.7c0.2-0.4,0.2-0.8,0-1.2
		c0-0.1-0.1-0.2-0.1-0.3c-0.1-0.3-0.4-0.7-0.2-1c0.2-0.3,0.7-0.2,0.9-0.3c0.6-0.3,1.2-0.6,1.8-0.8c0.6-0.1,1.2,0,1.7,0.1
		c0.1,0,0.1,0,0.2,0.1c0.1,0.1,0.1,0.1,0.2,0.2c0.2,0.4,0.3,0.8,0.4,1.2c0.1,0.4,0.3,0.8,0.6,1.1c0.3,0.2,0.6,0.4,0.9,0.5l0.8,0.4
		c0.1,0.1,0.3,0.1,0.4,0.2c0.1,0.1,0.2,0.3,0.2,0.5C972,640.4,971.9,641.4,971.4,642.3z"/>
	<circle class="st24" cx="966.1" cy="633.9" r="4"/>
	<path class="st2" d="M963.3,627.3c-0.3,0.2-0.5,0.5-0.7,0.8c-0.3,0.6-0.8,1-1.4,1.4c-0.2,0.1-0.5,0.2-0.7,0.4
		c-0.1,0.1-0.2,0.3-0.2,0.5c-0.1,0.6-0.2,1.1-0.2,1.7c0,0.3,0,0.6,0.1,0.8c0.2,0.2,0.3,0.5,0.4,0.7c0,0.2,0,0.4-0.1,0.6
		c-0.1,0.2,0,0.5,0.2,0.6c0.1,0,0.2,0.1,0.3,0.1c0.6,0.1,0.8,0.8,0.9,1.4c0.2,0,0.3-0.2,0.3-0.4l0.6-2.7c0.1-0.3,0.2-0.6,0.5-0.7
		c0.2,0,0.4,0,0.6,0c0.8,0.1,1.5-0.5,2.3-0.7c0.3,0,0.5,0,0.8,0c0.6,0,1.3,0.3,1.5,0.9c0,0.1,0,0.2,0.1,0.3c0.1,0,0.2,0,0.3,0
		c0.4,0,0.6,0.4,0.7,0.8l0.4,1.3c0.1,0.2,0.2,0.4,0.4,0.5c0.2,0,0.4-0.1,0.4-0.3c0-0.2,0-0.4-0.1-0.6c-0.1-0.9,0-1.8,0.3-2.6
		c0.3-0.9,0.1-1.8-0.4-2.5c-0.2-0.2-0.5-0.4-0.7-0.7s-0.3-0.5-0.5-0.8c-0.8-0.7-1.8-1.1-2.8-1.2
		C965.5,626.5,964.3,626.7,963.3,627.3z"/>
	<path class="st21" d="M978.4,646.7h-19c-0.6-1.3-1.1-2.6-1.7-3.9l0,0c0.1-0.3,0.2-0.6,0.3-0.9c0.2-0.3,0.5-0.4,0.8-0.4
		c0.2,0,0.4,0.1,0.5-0.1s0.1-0.2,0.2-0.3c0.1-0.1,0.3-0.1,0.5-0.1c0.4,0,0.7-0.2,0.9-0.5c0.1-0.1,0.1-0.2,0.2-0.3
		c0.1-0.1,0.3-0.1,0.5-0.1c0.5-0.1,0.8-0.6,1.1-0.9c0.2-0.2,0.4-0.3,0.7-0.2c0.1,0,0.1,0.1,0.1,0.1c0.1,0.1,0.2,0.3,0.2,0.5
		c0.2,1,0.7,1.8,1.5,2.5c1.5,1.1,3.7,0.8,4.8-0.7c0.1-0.2,0.3-0.4,0.4-0.6c0.3-0.7,0.4-1.5,0.5-2.2v-0.1c0.5-0.1,1,0,1.4,0.3
		c0.4,0.3,0.8,0.6,1.2,0.8c0.5,0.2,1.2,0.2,1.5,0.6c0.2,0.2,0.3,0.4,0.4,0.5c0.1,0,0.2,0.1,0.4,0.1c0.7,0.2,1.2,0.7,1.5,1.3
		c0.4,0.9,0.7,1.9,0.8,3L978.4,646.7z"/>
	<path class="st21" d="M960.9,646.7h-4.5c0.2-1.2,0.6-2.4,1.1-3.5c0-0.1,0.1-0.2,0.2-0.3h0.1c0.1-0.1,0.3-0.1,0.5-0.2
		s0.2-0.2,0.3-0.3c0.5,0,1,0.1,1.5,0.3c0.1,0,0.3,0,0.4,0.1c0.3,0.2,0.5,0.4,0.6,0.8C961.1,644.5,961.1,645.6,960.9,646.7z"/>
</g>
<g class="st23">
	<rect x="953.1" y="677.6" class="st16" width="29.7" height="29.7"/>
	<path class="st21" d="M972,700c-0.4,0.8-1.1,1.5-2,1.8c-0.5,0.2-1.1,0.3-1.6,0.3c-0.6,0-1.2,0-1.7-0.2c-0.7-0.3-1.4-0.8-1.8-1.5
		c-0.4-0.7-0.8-1.4-1.1-2.1c-0.2-0.4-0.2-0.8-0.2-1.2c0.5-0.1,0.9-0.3,1.2-0.7c0.2-0.4,0.2-0.8,0-1.2c0-0.1-0.1-0.2-0.1-0.3
		c-0.1-0.3-0.4-0.7-0.2-1c0.2-0.3,0.7-0.2,0.9-0.3c0.6-0.3,1.2-0.6,1.8-0.8c0.6-0.1,1.2,0,1.7,0.1c0.1,0,0.1,0,0.2,0.1
		c0.1,0.1,0.1,0.1,0.2,0.2c0.2,0.4,0.3,0.8,0.4,1.2c0.1,0.4,0.3,0.8,0.6,1.1c0.3,0.2,0.6,0.4,0.9,0.5l0.8,0.4
		c0.1,0.1,0.3,0.1,0.4,0.2c0.1,0.1,0.2,0.3,0.2,0.5C972.6,698.2,972.4,699.2,972,700z"/>
	<circle class="st24" cx="966.7" cy="691.6" r="4"/>
	<path class="st2" d="M963.9,685.1c-0.3,0.2-0.5,0.5-0.7,0.8c-0.3,0.6-0.8,1-1.4,1.4c-0.2,0.1-0.5,0.2-0.7,0.4
		c-0.1,0.1-0.2,0.3-0.2,0.5c-0.1,0.6-0.2,1.1-0.2,1.7c0,0.3,0,0.6,0.1,0.8c0.2,0.2,0.3,0.5,0.4,0.7c0,0.2,0,0.4-0.1,0.6
		c-0.1,0.2,0,0.5,0.2,0.6c0.1,0,0.2,0.1,0.3,0.1c0.6,0.1,0.8,0.8,0.9,1.4c0.2,0,0.3-0.2,0.3-0.4l0.6-2.7c0.1-0.3,0.2-0.6,0.5-0.7
		c0.2,0,0.4,0,0.6,0c0.8,0.1,1.5-0.5,2.3-0.7c0.3,0,0.5,0,0.8,0c0.6,0,1.3,0.3,1.5,0.9c0,0.1,0,0.2,0.1,0.3c0.1,0,0.2,0,0.3,0
		c0.4,0,0.6,0.4,0.7,0.8l0.4,1.3c0.1,0.2,0.2,0.4,0.4,0.5c0.2,0,0.4-0.1,0.4-0.3c0-0.2,0-0.4-0.1-0.6c-0.1-0.9,0-1.8,0.3-2.6
		c0.3-0.9,0.1-1.8-0.4-2.5c-0.2-0.2-0.5-0.4-0.7-0.7s-0.3-0.5-0.5-0.8c-0.8-0.7-1.8-1.1-2.8-1.2
		C966.1,684.3,964.9,684.5,963.9,685.1z"/>
	<path class="st21" d="M978.9,704.4h-19c-0.6-1.3-1.1-2.6-1.7-3.9l0,0c0.1-0.3,0.2-0.6,0.3-0.9c0.2-0.3,0.5-0.4,0.8-0.4
		c0.2,0,0.4,0.1,0.5-0.1s0.1-0.2,0.2-0.3c0.1-0.1,0.3-0.1,0.5-0.1c0.4,0,0.7-0.2,0.9-0.5c0.1-0.1,0.1-0.2,0.2-0.3
		c0.1-0.1,0.3-0.1,0.5-0.1c0.5-0.1,0.8-0.6,1.1-0.9c0.2-0.2,0.4-0.3,0.7-0.2c0.1,0,0.1,0.1,0.1,0.1c0.1,0.1,0.2,0.3,0.2,0.5
		c0.2,1,0.7,1.8,1.5,2.5c1.5,1.1,3.7,0.8,4.8-0.7c0.1-0.2,0.3-0.4,0.4-0.6c0.3-0.7,0.4-1.5,0.5-2.2v-0.1c0.5-0.1,1,0,1.4,0.3
		c0.4,0.3,0.8,0.6,1.2,0.8c0.5,0.2,1.2,0.2,1.5,0.6c0.2,0.2,0.3,0.4,0.5,0.5c0.1,0,0.2,0.1,0.4,0.1c0.7,0.2,1.2,0.7,1.5,1.3
		c0.4,0.9,0.7,1.9,0.8,3L978.9,704.4z"/>
	<path class="st21" d="M961.4,704.4h-4.5c0.2-1.2,0.6-2.4,1.1-3.5c0-0.1,0.1-0.2,0.2-0.3h0.1c0.1-0.1,0.3-0.1,0.5-0.2
		s0.2-0.2,0.3-0.3c0.5,0,1,0.1,1.5,0.3c0.1,0,0.3,0,0.4,0.1c0.3,0.2,0.5,0.4,0.6,0.8C961.7,702.3,961.7,703.4,961.4,704.4z"/>
</g>
<g class="st23">
	<rect x="952.1" y="728.6" class="st16" width="29.7" height="29.7"/>
	<path class="st21" d="M971,751c-0.4,0.8-1.1,1.5-2,1.8c-0.5,0.2-1.1,0.3-1.6,0.3c-0.6,0-1.2,0-1.7-0.2c-0.7-0.3-1.4-0.8-1.8-1.5
		c-0.4-0.7-0.8-1.4-1.1-2.1c-0.2-0.4-0.2-0.8-0.2-1.2c0.5-0.1,0.9-0.3,1.2-0.7c0.2-0.4,0.2-0.8,0-1.2c0-0.1-0.1-0.2-0.1-0.3
		c-0.1-0.3-0.4-0.7-0.2-1c0.2-0.3,0.7-0.2,0.9-0.3c0.6-0.3,1.2-0.6,1.8-0.8c0.6-0.1,1.2,0,1.7,0.1c0.1,0,0.1,0,0.2,0.1
		c0.1,0.1,0.1,0.1,0.2,0.2c0.2,0.4,0.3,0.8,0.4,1.2c0.1,0.4,0.3,0.8,0.6,1.1c0.3,0.2,0.6,0.4,0.9,0.5l0.8,0.4
		c0.1,0.1,0.3,0.1,0.4,0.2c0.1,0.1,0.2,0.3,0.2,0.5C971.6,749.2,971.4,750.2,971,751z"/>
	<circle class="st24" cx="965.7" cy="742.6" r="4"/>
	<path class="st2" d="M962.9,736.1c-0.3,0.2-0.5,0.5-0.7,0.8c-0.3,0.6-0.8,1-1.4,1.4c-0.2,0.1-0.5,0.2-0.7,0.4
		c-0.1,0.1-0.2,0.3-0.2,0.5c-0.1,0.6-0.2,1.1-0.2,1.7c0,0.3,0,0.6,0.1,0.8c0.2,0.2,0.3,0.5,0.4,0.7c0,0.2,0,0.4-0.1,0.6
		c-0.1,0.2,0,0.5,0.2,0.6c0.1,0,0.2,0.1,0.3,0.1c0.6,0.1,0.8,0.8,0.9,1.4c0.2,0,0.3-0.2,0.3-0.4l0.6-2.7c0.1-0.3,0.2-0.6,0.5-0.7
		c0.2,0,0.4,0,0.6,0c0.8,0.1,1.5-0.5,2.3-0.7c0.3,0,0.5,0,0.8,0c0.6,0,1.3,0.3,1.5,0.9c0,0.1,0,0.2,0.1,0.3c0.1,0,0.2,0,0.3,0
		c0.4,0,0.6,0.4,0.7,0.8l0.4,1.3c0.1,0.2,0.2,0.4,0.4,0.5c0.2,0,0.4-0.1,0.4-0.3c0-0.2,0-0.4-0.1-0.6c-0.1-0.9,0-1.8,0.3-2.6
		c0.3-0.9,0.1-1.8-0.4-2.5c-0.2-0.2-0.5-0.4-0.7-0.7s-0.3-0.5-0.5-0.8c-0.8-0.7-1.8-1.1-2.8-1.2
		C965.1,735.3,963.9,735.5,962.9,736.1z"/>
	<path class="st21" d="M977.9,755.4h-19c-0.6-1.3-1.1-2.6-1.7-3.9l0,0c0.1-0.3,0.2-0.6,0.3-0.9c0.2-0.3,0.5-0.4,0.8-0.4
		c0.2,0,0.4,0.1,0.5-0.1s0.1-0.2,0.2-0.3c0.1-0.1,0.3-0.1,0.5-0.1c0.4,0,0.7-0.2,0.9-0.5c0.1-0.1,0.1-0.2,0.2-0.3
		c0.1-0.1,0.3-0.1,0.5-0.1c0.5-0.1,0.8-0.6,1.1-0.9c0.2-0.2,0.4-0.3,0.7-0.2c0.1,0,0.1,0.1,0.1,0.1c0.1,0.1,0.2,0.3,0.2,0.5
		c0.2,1,0.7,1.8,1.5,2.5c1.5,1.1,3.7,0.8,4.8-0.7c0.1-0.2,0.3-0.4,0.4-0.6c0.3-0.7,0.4-1.5,0.5-2.2v-0.1c0.5-0.1,1,0,1.4,0.3
		c0.4,0.3,0.8,0.6,1.2,0.8c0.5,0.2,1.2,0.2,1.5,0.6c0.2,0.2,0.3,0.4,0.5,0.5c0.1,0,0.2,0.1,0.4,0.1c0.7,0.2,1.2,0.7,1.5,1.3
		c0.4,0.9,0.7,1.9,0.8,3L977.9,755.4z"/>
	<path class="st21" d="M960.4,755.4h-4.5c0.2-1.2,0.6-2.4,1.1-3.5c0-0.1,0.1-0.2,0.2-0.3h0.1c0.1-0.1,0.3-0.1,0.5-0.2
		s0.2-0.2,0.3-0.3c0.5,0,1,0.1,1.5,0.3c0.1,0,0.3,0,0.4,0.1c0.3,0.2,0.5,0.4,0.6,0.8C960.7,753.3,960.7,754.4,960.4,755.4z"/>
</g>
<text transform="matrix(1 0 0 1 1003.34 520.2999)" class="st3 st27 st28">Contractors</text>
<path class="st2" d="M936.6,671.3c-6.5-0.7-13-0.8-19.5-0.5c-0.4,0-0.9,0.1-1.3,0.2c-1.4,0.6-1.7,2.5-1.8,4
	c-0.5,6.2-3.3,12-4.7,18.1c-0.8,3.8-1.2,7.7-1.1,11.6c0.1,1.7,0,3.5-0.1,5.2c-0.2,1.6-0.6,3.1-0.8,4.7c-0.2,2.1-0.3,4.2-0.3,6.3
	c-0.1,3.3,0.1,6.6,0.6,9.8c0.9,5.5-0.7,11.1-1.1,16.7c-0.2,3.9-0.7,7.8-1.3,11.7c-0.3,1.6-0.7,3.2-0.9,4.9
	c-0.7,4.9,0.3,9.9-0.7,14.8c-0.5,2.3-1.3,4.8-0.1,6.7c0.4,0.6,1,1.1,1.4,1.7c0.5,0.6,0.6,1.3,0.4,2c-0.3,0.5-0.8,0.9-1,1.4
	c-0.2,0.9,0.7,1.6,1.5,2c6.6,2.8,14.2,0.9,18.7-4.6c-0.7-0.1-1.6-0.7-1.7-1.4c0-0.7,0.2-1.5,0.5-2.2c0.3-1.3,0.4-2.6,0.2-3.8
	c-0.2-0.9-0.5-1.8-0.7-2.7c-0.2-1-0.3-2-0.3-3c-0.3-3.6-1-7.2-2.1-10.6c-1-3.3,0.4-6.7,0.8-10.2c0-1.7,0.3-3.3,0.7-4.9
	c0.3-0.9,0.9-1.8,1.3-2.7c0.8-2.2,0.3-4.5-0.2-6.8c3.5-6.2,4.6-13.6,5.9-20.6l2.2-11.8c0.2-1.8,0.8-3.5,1.8-5
	c1.1,5.2,1.6,10.5,1.3,15.8c-0.1,1.5-0.1,3.1,0.1,4.6c0.3,1.7,1,3.3,1.4,4.9c0.9,3.6,0.4,7.5,0.6,11.2c0.1,1.5,0.3,3,0.3,4.5
	c0.3,6.7-2,13.2-4.2,19.5c-1.4,3.9-1.7,8.3-2.3,12.3c-0.6,3.9-1.2,7.8-1.5,11.7c-0.3,3.6-0.4,7.5-2.7,10.3c2,1.5,4.2,2.5,6.6,3.2
	c2.8,0.4,5.7-0.1,8.1-1.6c2.4-1.5,4.6-3.3,6.4-5.5c-0.5-0.2-0.6-0.8-0.7-1.3c-0.7-7.4,2.1-14.5,3.2-21.9c0.5-3.7,0.6-7.4,0.3-11.1
	c-0.1-1.4-0.3-2.8-0.4-4.2c-0.3-7.3,3.2-14.3,3.1-21.6c-0.1-3.4,1.8-6.8,2.6-10.1c0.6-3,0.9-6,0.8-9l0.1-23.8c0-3.2,0-6.5-1-9.6
	c-1.3-3.7,0.2-7.9,0.4-11.8C949.3,671.1,942.9,671.8,936.6,671.3z"/>
<path class="st3" d="M935.6,617.3c-0.3-3.3-2.6-6-5.8-6.7c-1.3-0.1-2.5-0.4-3.7-0.9c-1.9-1.1-2.5-3.7-4.3-4.9s-4.4-0.5-6,1
	c-1.5,1.6-2.5,3.6-3.1,5.8c-1,2.8-1.5,5.8-1.6,8.8c0,0.6,0.1,1.1,0.3,1.6c0.3,0.6,0.8,1.1,1.3,1.6c1.4,1.5,2,3.6,1.8,5.7
	c-0.2,1.9,0,3.8,0.5,5.7c1.2,5.1,2.3,10.3,3.3,15.4c0.2,1,0.3,1.9,0.2,2.9c-0.2,1.4-1,2.7-0.8,4.1c0.2,0.7,0.3,1.3,0.4,2
	c0,0.5-0.2,1-0.3,1.5c-1.3,3.8-4.9,12.6-4.9,16.7c6.2-1.6,15.3-2,21.7-2c1.8,0,3.5,0.1,5.3,0.2c4.2,0.5,8.5,1.7,12.6,0.5
	c3.8-1.1,7.1-4.1,11.1-3.7c0.8-2.2-0.2-9.7-1-11.9c-3.1-8.8-3.7-18.4-1.7-27.5c0.7-3.3-0.3-6.8,0.5-10.1c0.1-0.8,0.4-1.5,0.9-2.2
	c0.5-0.7,1.2-1,2-1c0.1-5.3-0.4-10.5-1.5-15.7c-0.4-1.8-1.2-4-3-4.3c-1.7-0.3-3.1,1.1-4.4,2.2c-1.4,1.1-3,1.8-4.7,2.2
	c-0.7,0.1-1.3,0.3-1.9,0.7c-0.8,0.7-0.9,1.9-1.6,2.7c-1.2,1.5-3.8,1.3-4.6,3c-0.2,0.5-0.3,1-0.4,1.5c-0.4,1-1.1,1.9-1.9,2.5
	C938.9,616,937.3,616.9,935.6,617.3z"/>
<g class="st23">
	<rect x="951.6" y="403.5" class="st16" width="29.7" height="29.7"/>
	<path class="st21" d="M970.5,425.9c-0.4,0.8-1.1,1.5-2,1.8c-0.5,0.2-1.1,0.3-1.6,0.3c-0.6,0-1.2,0-1.7-0.2
		c-0.7-0.3-1.4-0.8-1.8-1.5c-0.4-0.7-0.8-1.4-1.1-2.1c-0.2-0.4-0.2-0.8-0.2-1.2c0.5-0.1,0.9-0.3,1.2-0.7c0.2-0.4,0.2-0.8,0-1.2
		c0-0.1-0.1-0.2-0.1-0.3c-0.1-0.3-0.4-0.7-0.2-1c0.2-0.3,0.7-0.2,0.9-0.3c0.6-0.3,1.2-0.6,1.8-0.8c0.6-0.1,1.2,0,1.7,0.1
		c0.1,0,0.1,0,0.2,0.1c0.1,0.1,0.1,0.1,0.2,0.2c0.2,0.4,0.3,0.8,0.4,1.2c0.1,0.4,0.3,0.8,0.6,1.1c0.3,0.2,0.6,0.4,0.9,0.5l0.8,0.4
		c0.1,0.1,0.3,0.1,0.4,0.2c0.1,0.1,0.2,0.3,0.2,0.5C971.1,424.1,970.9,425.1,970.5,425.9z"/>
	<circle class="st24" cx="965.2" cy="417.5" r="4"/>
	<path class="st2" d="M962.4,411c-0.3,0.2-0.5,0.5-0.7,0.8c-0.3,0.6-0.8,1-1.4,1.4c-0.2,0.1-0.5,0.2-0.7,0.4
		c-0.1,0.1-0.2,0.3-0.2,0.5c-0.1,0.6-0.2,1.1-0.2,1.7c0,0.3,0,0.6,0.1,0.8c0.2,0.2,0.3,0.5,0.4,0.7c0,0.2,0,0.4-0.1,0.6
		c-0.1,0.2,0,0.5,0.2,0.6c0.1,0,0.2,0.1,0.3,0.1c0.6,0.1,0.8,0.8,0.9,1.4c0.2,0,0.3-0.2,0.3-0.4l0.6-2.7c0.1-0.3,0.2-0.6,0.5-0.7
		c0.2,0,0.4,0,0.6,0c0.8,0.1,1.5-0.5,2.3-0.7c0.3,0,0.5,0,0.8,0c0.6,0,1.3,0.3,1.5,0.9c0,0.1,0,0.2,0.1,0.3c0.1,0,0.2,0,0.3,0
		c0.4,0,0.6,0.4,0.7,0.8l0.4,1.3c0.1,0.2,0.2,0.4,0.4,0.5c0.2,0,0.4-0.1,0.4-0.3c0-0.2,0-0.4-0.1-0.6c-0.1-0.9,0-1.8,0.3-2.6
		c0.3-0.9,0.1-1.8-0.4-2.5c-0.2-0.2-0.5-0.4-0.7-0.7s-0.3-0.5-0.5-0.8c-0.8-0.7-1.8-1.1-2.8-1.2C964.6,410.2,963.4,410.4,962.4,411z
		"/>
	<path class="st21" d="M977.4,430.3h-19c-0.6-1.3-1.1-2.6-1.7-3.9l0,0c0.1-0.3,0.2-0.6,0.3-0.9c0.2-0.3,0.5-0.4,0.8-0.4
		c0.2,0,0.4,0.1,0.5-0.1s0.1-0.2,0.2-0.3c0.1-0.1,0.3-0.1,0.5-0.1c0.4,0,0.7-0.2,0.9-0.5c0.1-0.1,0.1-0.2,0.2-0.3
		c0.1-0.1,0.3-0.1,0.5-0.1c0.5-0.1,0.8-0.6,1.1-0.9c0.2-0.2,0.4-0.3,0.7-0.2c0.1,0,0.1,0.1,0.1,0.1c0.1,0.1,0.2,0.3,0.2,0.5
		c0.2,1,0.7,1.8,1.5,2.5c1.5,1.1,3.7,0.8,4.8-0.7c0.1-0.2,0.3-0.4,0.4-0.6c0.3-0.7,0.4-1.5,0.5-2.2v-0.1c0.5-0.1,1,0,1.4,0.3
		c0.4,0.3,0.8,0.6,1.2,0.8c0.5,0.2,1.2,0.2,1.5,0.6c0.2,0.2,0.3,0.4,0.5,0.5c0.1,0,0.2,0.1,0.4,0.1c0.7,0.2,1.2,0.7,1.5,1.3
		c0.4,0.9,0.7,1.9,0.8,3L977.4,430.3z"/>
	<path class="st21" d="M959.9,430.3h-4.5c0.2-1.2,0.6-2.4,1.1-3.5c0-0.1,0.1-0.2,0.2-0.3h0.1c0.1-0.1,0.3-0.1,0.5-0.2
		s0.2-0.2,0.3-0.3c0.5,0,1,0.1,1.5,0.3c0.1,0,0.3,0,0.4,0.1c0.3,0.2,0.5,0.4,0.6,0.8C960.2,428.2,960.2,429.3,959.9,430.3z"/>
</g>
<g class="st23">
	<rect x="950.2" y="458" class="st16" width="29.7" height="29.7"/>
	<path class="st21" d="M969.1,480.4c-0.4,0.8-1.1,1.5-2,1.8c-0.5,0.2-1.1,0.3-1.6,0.3c-0.6,0-1.2,0-1.7-0.2
		c-0.7-0.3-1.4-0.8-1.8-1.5c-0.4-0.7-0.8-1.4-1.1-2.1c-0.2-0.4-0.2-0.8-0.2-1.2c0.5-0.1,0.9-0.3,1.2-0.7c0.2-0.4,0.2-0.8,0-1.2
		c0-0.1-0.1-0.2-0.1-0.3c-0.1-0.3-0.4-0.7-0.2-1c0.2-0.3,0.7-0.2,0.9-0.3c0.6-0.3,1.2-0.6,1.8-0.8c0.6-0.1,1.2,0,1.7,0.1
		c0.1,0,0.1,0,0.2,0.1c0.1,0.1,0.1,0.1,0.2,0.2c0.2,0.4,0.3,0.8,0.4,1.2c0.1,0.4,0.3,0.8,0.6,1.1c0.3,0.2,0.6,0.4,0.9,0.5l0.8,0.4
		c0.1,0.1,0.3,0.1,0.4,0.2c0.1,0.1,0.2,0.3,0.2,0.5C969.7,478.6,969.5,479.6,969.1,480.4z"/>
	<circle class="st24" cx="963.8" cy="472" r="4"/>
	<path class="st2" d="M961,465.5c-0.3,0.2-0.5,0.5-0.7,0.8c-0.3,0.6-0.8,1-1.4,1.4c-0.2,0.1-0.5,0.2-0.7,0.4
		c-0.1,0.1-0.2,0.3-0.2,0.5c-0.1,0.6-0.2,1.1-0.2,1.7c0,0.3,0,0.6,0.1,0.8c0.2,0.2,0.3,0.5,0.4,0.7c0,0.2,0,0.4-0.1,0.6
		c-0.1,0.2,0,0.5,0.2,0.6c0.1,0,0.2,0.1,0.3,0.1c0.6,0.1,0.8,0.8,0.9,1.4c0.2,0,0.3-0.2,0.3-0.4l0.6-2.7c0.1-0.3,0.2-0.6,0.5-0.7
		c0.2,0,0.4,0,0.6,0c0.8,0.1,1.5-0.5,2.3-0.7c0.3,0,0.5,0,0.8,0c0.6,0,1.3,0.3,1.5,0.9c0,0.1,0,0.2,0.1,0.3c0.1,0,0.2,0,0.3,0
		c0.4,0,0.6,0.4,0.7,0.8l0.4,1.3c0.1,0.2,0.2,0.4,0.4,0.5c0.2,0,0.4-0.1,0.4-0.3c0-0.2,0-0.4-0.1-0.6c-0.1-0.9,0-1.8,0.3-2.6
		c0.3-0.9,0.1-1.8-0.4-2.5c-0.2-0.2-0.5-0.4-0.7-0.7s-0.3-0.5-0.5-0.8c-0.8-0.7-1.8-1.1-2.8-1.2C963.2,464.7,962,464.9,961,465.5z"
		/>
	<path class="st21" d="M976,484.8h-19c-0.6-1.3-1.1-2.6-1.7-3.9l0,0c0.1-0.3,0.2-0.6,0.3-0.9c0.2-0.3,0.5-0.4,0.8-0.4
		c0.2,0,0.4,0.1,0.5-0.1s0.1-0.2,0.2-0.3c0.1-0.1,0.3-0.1,0.5-0.1c0.4,0,0.7-0.2,0.9-0.5c0.1-0.1,0.1-0.2,0.2-0.3
		c0.1-0.1,0.3-0.1,0.5-0.1c0.5-0.1,0.8-0.6,1.1-0.9c0.2-0.2,0.4-0.3,0.7-0.2c0.1,0,0.1,0.1,0.1,0.1c0.1,0.1,0.2,0.3,0.2,0.5
		c0.2,1,0.7,1.8,1.5,2.5c1.5,1.1,3.7,0.8,4.8-0.7c0.1-0.2,0.3-0.4,0.4-0.6c0.3-0.7,0.4-1.5,0.5-2.2v-0.1c0.5-0.1,1,0,1.4,0.3
		c0.4,0.3,0.8,0.6,1.2,0.8c0.5,0.2,1.2,0.2,1.5,0.6c0.2,0.2,0.3,0.4,0.5,0.5c0.1,0,0.2,0.1,0.4,0.1c0.7,0.2,1.2,0.7,1.5,1.3
		c0.4,0.9,0.7,1.9,0.8,3L976,484.8z"/>
	<path class="st21" d="M958.5,484.8H954c0.2-1.2,0.6-2.4,1.1-3.5c0-0.1,0.1-0.2,0.2-0.3h0.1c0.1-0.1,0.3-0.1,0.5-0.2
		s0.2-0.2,0.3-0.3c0.5,0,1,0.1,1.5,0.3c0.1,0,0.3,0,0.4,0.1c0.3,0.2,0.5,0.4,0.6,0.8C958.8,482.7,958.8,483.8,958.5,484.8z"/>
</g>
</svg>
